<?xml version="1.0" encoding="utf-8" standalone="no"?>
<!DOCTYPE svg PUBLIC "-//W3C//DTD SVG 1.1//EN"
  "http://www.w3.org/Graphics/SVG/1.1/DTD/svg11.dtd">
<svg xmlns:xlink="http://www.w3.org/1999/xlink" width="334.8655pt" height="274.242437pt" viewBox="0 0 334.8655 274.242437" xmlns="http://www.w3.org/2000/svg" version="1.1">
 <metadata>
  <rdf:RDF xmlns:dc="http://purl.org/dc/elements/1.1/" xmlns:cc="http://creativecommons.org/ns#" xmlns:rdf="http://www.w3.org/1999/02/22-rdf-syntax-ns#">
   <cc:Work>
    <dc:type rdf:resource="http://purl.org/dc/dcmitype/StillImage"/>
    <dc:date>2024-04-28T22:04:56.722126</dc:date>
    <dc:format>image/svg+xml</dc:format>
    <dc:creator>
     <cc:Agent>
      <dc:title>Matplotlib v3.7.2, https://matplotlib.org/</dc:title>
     </cc:Agent>
    </dc:creator>
   </cc:Work>
  </rdf:RDF>
 </metadata>
 <defs>
  <style type="text/css">*{stroke-linejoin: round; stroke-linecap: butt}</style>
 </defs>
 <g id="figure_1">
  <g id="patch_1">
   <path d="M 0 274.242437 
L 334.8655 274.242437 
L 334.8655 0 
L 0 0 
z
" style="fill: #ffffff"/>
  </g>
  <g id="axes_1">
   <g id="patch_2">
    <path d="M 48.6655 228.96 
L 327.6655 228.96 
L 327.6655 7.2 
L 48.6655 7.2 
z
" style="fill: #ffffff"/>
   </g>
   <g id="matplotlib.axis_1">
    <g id="xtick_1">
     <g id="text_1">
      <!-- 0.0 -->
      <g style="fill: #262626" transform="translate(67.818781 246.818281) scale(0.11 -0.11)">
       <defs>
        <path id="DejaVuSans-30" d="M 2034 4250 
Q 1547 4250 1301 3770 
Q 1056 3291 1056 2328 
Q 1056 1369 1301 889 
Q 1547 409 2034 409 
Q 2525 409 2770 889 
Q 3016 1369 3016 2328 
Q 3016 3291 2770 3770 
Q 2525 4250 2034 4250 
z
M 2034 4750 
Q 2819 4750 3233 4129 
Q 3647 3509 3647 2328 
Q 3647 1150 3233 529 
Q 2819 -91 2034 -91 
Q 1250 -91 836 529 
Q 422 1150 422 2328 
Q 422 3509 836 4129 
Q 1250 4750 2034 4750 
z
" transform="scale(0.015625)"/>
        <path id="DejaVuSans-2e" d="M 684 794 
L 1344 794 
L 1344 0 
L 684 0 
L 684 794 
z
" transform="scale(0.015625)"/>
       </defs>
       <use xlink:href="#DejaVuSans-30"/>
       <use xlink:href="#DejaVuSans-2e" x="63.623047"/>
       <use xlink:href="#DejaVuSans-30" x="95.410156"/>
      </g>
     </g>
    </g>
    <g id="xtick_2">
     <g id="text_2">
      <!-- 0.25 -->
      <g style="fill: #262626" transform="translate(120.119406 246.818281) scale(0.11 -0.11)">
       <defs>
        <path id="DejaVuSans-32" d="M 1228 531 
L 3431 531 
L 3431 0 
L 469 0 
L 469 531 
Q 828 903 1448 1529 
Q 2069 2156 2228 2338 
Q 2531 2678 2651 2914 
Q 2772 3150 2772 3378 
Q 2772 3750 2511 3984 
Q 2250 4219 1831 4219 
Q 1534 4219 1204 4116 
Q 875 4013 500 3803 
L 500 4441 
Q 881 4594 1212 4672 
Q 1544 4750 1819 4750 
Q 2544 4750 2975 4387 
Q 3406 4025 3406 3419 
Q 3406 3131 3298 2873 
Q 3191 2616 2906 2266 
Q 2828 2175 2409 1742 
Q 1991 1309 1228 531 
z
" transform="scale(0.015625)"/>
        <path id="DejaVuSans-35" d="M 691 4666 
L 3169 4666 
L 3169 4134 
L 1269 4134 
L 1269 2991 
Q 1406 3038 1543 3061 
Q 1681 3084 1819 3084 
Q 2600 3084 3056 2656 
Q 3513 2228 3513 1497 
Q 3513 744 3044 326 
Q 2575 -91 1722 -91 
Q 1428 -91 1123 -41 
Q 819 9 494 109 
L 494 744 
Q 775 591 1075 516 
Q 1375 441 1709 441 
Q 2250 441 2565 725 
Q 2881 1009 2881 1497 
Q 2881 1984 2565 2268 
Q 2250 2553 1709 2553 
Q 1456 2553 1204 2497 
Q 953 2441 691 2322 
L 691 4666 
z
" transform="scale(0.015625)"/>
       </defs>
       <use xlink:href="#DejaVuSans-30"/>
       <use xlink:href="#DejaVuSans-2e" x="63.623047"/>
       <use xlink:href="#DejaVuSans-32" x="95.410156"/>
       <use xlink:href="#DejaVuSans-35" x="159.033203"/>
      </g>
     </g>
    </g>
    <g id="xtick_3">
     <g id="text_3">
      <!-- 0.5 -->
      <g style="fill: #262626" transform="translate(179.418781 246.818281) scale(0.11 -0.11)">
       <use xlink:href="#DejaVuSans-30"/>
       <use xlink:href="#DejaVuSans-2e" x="63.623047"/>
       <use xlink:href="#DejaVuSans-35" x="95.410156"/>
      </g>
     </g>
    </g>
    <g id="xtick_4">
     <g id="text_4">
      <!-- 0.75 -->
      <g style="fill: #262626" transform="translate(231.719406 246.818281) scale(0.11 -0.11)">
       <defs>
        <path id="DejaVuSans-37" d="M 525 4666 
L 3525 4666 
L 3525 4397 
L 1831 0 
L 1172 0 
L 2766 4134 
L 525 4134 
L 525 4666 
z
" transform="scale(0.015625)"/>
       </defs>
       <use xlink:href="#DejaVuSans-30"/>
       <use xlink:href="#DejaVuSans-2e" x="63.623047"/>
       <use xlink:href="#DejaVuSans-37" x="95.410156"/>
       <use xlink:href="#DejaVuSans-35" x="159.033203"/>
      </g>
     </g>
    </g>
    <g id="xtick_5">
     <g id="text_5">
      <!-- 1.0 -->
      <g style="fill: #262626" transform="translate(291.018781 246.818281) scale(0.11 -0.11)">
       <defs>
        <path id="DejaVuSans-31" d="M 794 531 
L 1825 531 
L 1825 4091 
L 703 3866 
L 703 4441 
L 1819 4666 
L 2450 4666 
L 2450 531 
L 3481 531 
L 3481 0 
L 794 0 
L 794 531 
z
" transform="scale(0.015625)"/>
       </defs>
       <use xlink:href="#DejaVuSans-31"/>
       <use xlink:href="#DejaVuSans-2e" x="63.623047"/>
       <use xlink:href="#DejaVuSans-30" x="95.410156"/>
      </g>
     </g>
    </g>
    <g id="text_6">
     <!-- $\lambda$ -->
     <g style="fill: #262626" transform="translate(183.8455 264.047687) scale(0.144 -0.144)">
      <defs>
       <path id="DejaVuSans-Oblique-3bb" d="M 2350 4316 
L 3125 0 
L 2516 0 
L 2038 2588 
L 328 0 
L -281 0 
L 1903 3356 
L 1794 3975 
Q 1725 4369 1391 4369 
L 1091 4369 
L 1184 4863 
L 1550 4856 
Q 2253 4847 2350 4316 
z
" transform="scale(0.015625)"/>
      </defs>
      <use xlink:href="#DejaVuSans-Oblique-3bb" transform="translate(0 0.015625)"/>
     </g>
    </g>
   </g>
   <g id="matplotlib.axis_2">
    <g id="ytick_1">
     <g id="line2d_1">
      <path d="M 48.6655 207.690618 
L 327.6655 207.690618 
" clip-path="url(#p72c5408349)" style="fill: none; stroke: #cccccc; stroke-linecap: round"/>
     </g>
     <g id="text_7">
      <!-- 0 -->
      <g style="fill: #262626" transform="translate(32.16675 211.869759) scale(0.11 -0.11)">
       <use xlink:href="#DejaVuSans-30"/>
      </g>
     </g>
    </g>
    <g id="ytick_2">
     <g id="line2d_2">
      <path d="M 48.6655 169.376323 
L 327.6655 169.376323 
" clip-path="url(#p72c5408349)" style="fill: none; stroke: #cccccc; stroke-linecap: round"/>
     </g>
     <g id="text_8">
      <!-- 2 -->
      <g style="fill: #262626" transform="translate(32.16675 173.555464) scale(0.11 -0.11)">
       <use xlink:href="#DejaVuSans-32"/>
      </g>
     </g>
    </g>
    <g id="ytick_3">
     <g id="line2d_3">
      <path d="M 48.6655 131.062028 
L 327.6655 131.062028 
" clip-path="url(#p72c5408349)" style="fill: none; stroke: #cccccc; stroke-linecap: round"/>
     </g>
     <g id="text_9">
      <!-- 4 -->
      <g style="fill: #262626" transform="translate(32.16675 135.241168) scale(0.11 -0.11)">
       <defs>
        <path id="DejaVuSans-34" d="M 2419 4116 
L 825 1625 
L 2419 1625 
L 2419 4116 
z
M 2253 4666 
L 3047 4666 
L 3047 1625 
L 3713 1625 
L 3713 1100 
L 3047 1100 
L 3047 0 
L 2419 0 
L 2419 1100 
L 313 1100 
L 313 1709 
L 2253 4666 
z
" transform="scale(0.015625)"/>
       </defs>
       <use xlink:href="#DejaVuSans-34"/>
      </g>
     </g>
    </g>
    <g id="ytick_4">
     <g id="line2d_4">
      <path d="M 48.6655 92.747732 
L 327.6655 92.747732 
" clip-path="url(#p72c5408349)" style="fill: none; stroke: #cccccc; stroke-linecap: round"/>
     </g>
     <g id="text_10">
      <!-- 6 -->
      <g style="fill: #262626" transform="translate(32.16675 96.926873) scale(0.11 -0.11)">
       <defs>
        <path id="DejaVuSans-36" d="M 2113 2584 
Q 1688 2584 1439 2293 
Q 1191 2003 1191 1497 
Q 1191 994 1439 701 
Q 1688 409 2113 409 
Q 2538 409 2786 701 
Q 3034 994 3034 1497 
Q 3034 2003 2786 2293 
Q 2538 2584 2113 2584 
z
M 3366 4563 
L 3366 3988 
Q 3128 4100 2886 4159 
Q 2644 4219 2406 4219 
Q 1781 4219 1451 3797 
Q 1122 3375 1075 2522 
Q 1259 2794 1537 2939 
Q 1816 3084 2150 3084 
Q 2853 3084 3261 2657 
Q 3669 2231 3669 1497 
Q 3669 778 3244 343 
Q 2819 -91 2113 -91 
Q 1303 -91 875 529 
Q 447 1150 447 2328 
Q 447 3434 972 4092 
Q 1497 4750 2381 4750 
Q 2619 4750 2861 4703 
Q 3103 4656 3366 4563 
z
" transform="scale(0.015625)"/>
       </defs>
       <use xlink:href="#DejaVuSans-36"/>
      </g>
     </g>
    </g>
    <g id="ytick_5">
     <g id="line2d_5">
      <path d="M 48.6655 54.433437 
L 327.6655 54.433437 
" clip-path="url(#p72c5408349)" style="fill: none; stroke: #cccccc; stroke-linecap: round"/>
     </g>
     <g id="text_11">
      <!-- 8 -->
      <g style="fill: #262626" transform="translate(32.16675 58.612578) scale(0.11 -0.11)">
       <defs>
        <path id="DejaVuSans-38" d="M 2034 2216 
Q 1584 2216 1326 1975 
Q 1069 1734 1069 1313 
Q 1069 891 1326 650 
Q 1584 409 2034 409 
Q 2484 409 2743 651 
Q 3003 894 3003 1313 
Q 3003 1734 2745 1975 
Q 2488 2216 2034 2216 
z
M 1403 2484 
Q 997 2584 770 2862 
Q 544 3141 544 3541 
Q 544 4100 942 4425 
Q 1341 4750 2034 4750 
Q 2731 4750 3128 4425 
Q 3525 4100 3525 3541 
Q 3525 3141 3298 2862 
Q 3072 2584 2669 2484 
Q 3125 2378 3379 2068 
Q 3634 1759 3634 1313 
Q 3634 634 3220 271 
Q 2806 -91 2034 -91 
Q 1263 -91 848 271 
Q 434 634 434 1313 
Q 434 1759 690 2068 
Q 947 2378 1403 2484 
z
M 1172 3481 
Q 1172 3119 1398 2916 
Q 1625 2713 2034 2713 
Q 2441 2713 2670 2916 
Q 2900 3119 2900 3481 
Q 2900 3844 2670 4047 
Q 2441 4250 2034 4250 
Q 1625 4250 1398 4047 
Q 1172 3844 1172 3481 
z
" transform="scale(0.015625)"/>
       </defs>
       <use xlink:href="#DejaVuSans-38"/>
      </g>
     </g>
    </g>
    <g id="ytick_6">
     <g id="line2d_6">
      <path d="M 48.6655 16.119142 
L 327.6655 16.119142 
" clip-path="url(#p72c5408349)" style="fill: none; stroke: #cccccc; stroke-linecap: round"/>
     </g>
     <g id="text_12">
      <!-- 10 -->
      <g style="fill: #262626" transform="translate(25.168 20.298282) scale(0.11 -0.11)">
       <use xlink:href="#DejaVuSans-31"/>
       <use xlink:href="#DejaVuSans-30" x="63.623047"/>
      </g>
     </g>
    </g>
    <g id="text_13">
     <!-- Learned prior, $R_\theta$ -->
     <g style="fill: #262626" transform="translate(18.144 179.568) rotate(-90) scale(0.144 -0.144)">
      <defs>
       <path id="DejaVuSans-4c" d="M 628 4666 
L 1259 4666 
L 1259 531 
L 3531 531 
L 3531 0 
L 628 0 
L 628 4666 
z
" transform="scale(0.015625)"/>
       <path id="DejaVuSans-65" d="M 3597 1894 
L 3597 1613 
L 953 1613 
Q 991 1019 1311 708 
Q 1631 397 2203 397 
Q 2534 397 2845 478 
Q 3156 559 3463 722 
L 3463 178 
Q 3153 47 2828 -22 
Q 2503 -91 2169 -91 
Q 1331 -91 842 396 
Q 353 884 353 1716 
Q 353 2575 817 3079 
Q 1281 3584 2069 3584 
Q 2775 3584 3186 3129 
Q 3597 2675 3597 1894 
z
M 3022 2063 
Q 3016 2534 2758 2815 
Q 2500 3097 2075 3097 
Q 1594 3097 1305 2825 
Q 1016 2553 972 2059 
L 3022 2063 
z
" transform="scale(0.015625)"/>
       <path id="DejaVuSans-61" d="M 2194 1759 
Q 1497 1759 1228 1600 
Q 959 1441 959 1056 
Q 959 750 1161 570 
Q 1363 391 1709 391 
Q 2188 391 2477 730 
Q 2766 1069 2766 1631 
L 2766 1759 
L 2194 1759 
z
M 3341 1997 
L 3341 0 
L 2766 0 
L 2766 531 
Q 2569 213 2275 61 
Q 1981 -91 1556 -91 
Q 1019 -91 701 211 
Q 384 513 384 1019 
Q 384 1609 779 1909 
Q 1175 2209 1959 2209 
L 2766 2209 
L 2766 2266 
Q 2766 2663 2505 2880 
Q 2244 3097 1772 3097 
Q 1472 3097 1187 3025 
Q 903 2953 641 2809 
L 641 3341 
Q 956 3463 1253 3523 
Q 1550 3584 1831 3584 
Q 2591 3584 2966 3190 
Q 3341 2797 3341 1997 
z
" transform="scale(0.015625)"/>
       <path id="DejaVuSans-72" d="M 2631 2963 
Q 2534 3019 2420 3045 
Q 2306 3072 2169 3072 
Q 1681 3072 1420 2755 
Q 1159 2438 1159 1844 
L 1159 0 
L 581 0 
L 581 3500 
L 1159 3500 
L 1159 2956 
Q 1341 3275 1631 3429 
Q 1922 3584 2338 3584 
Q 2397 3584 2469 3576 
Q 2541 3569 2628 3553 
L 2631 2963 
z
" transform="scale(0.015625)"/>
       <path id="DejaVuSans-6e" d="M 3513 2113 
L 3513 0 
L 2938 0 
L 2938 2094 
Q 2938 2591 2744 2837 
Q 2550 3084 2163 3084 
Q 1697 3084 1428 2787 
Q 1159 2491 1159 1978 
L 1159 0 
L 581 0 
L 581 3500 
L 1159 3500 
L 1159 2956 
Q 1366 3272 1645 3428 
Q 1925 3584 2291 3584 
Q 2894 3584 3203 3211 
Q 3513 2838 3513 2113 
z
" transform="scale(0.015625)"/>
       <path id="DejaVuSans-64" d="M 2906 2969 
L 2906 4863 
L 3481 4863 
L 3481 0 
L 2906 0 
L 2906 525 
Q 2725 213 2448 61 
Q 2172 -91 1784 -91 
Q 1150 -91 751 415 
Q 353 922 353 1747 
Q 353 2572 751 3078 
Q 1150 3584 1784 3584 
Q 2172 3584 2448 3432 
Q 2725 3281 2906 2969 
z
M 947 1747 
Q 947 1113 1208 752 
Q 1469 391 1925 391 
Q 2381 391 2643 752 
Q 2906 1113 2906 1747 
Q 2906 2381 2643 2742 
Q 2381 3103 1925 3103 
Q 1469 3103 1208 2742 
Q 947 2381 947 1747 
z
" transform="scale(0.015625)"/>
       <path id="DejaVuSans-20" transform="scale(0.015625)"/>
       <path id="DejaVuSans-70" d="M 1159 525 
L 1159 -1331 
L 581 -1331 
L 581 3500 
L 1159 3500 
L 1159 2969 
Q 1341 3281 1617 3432 
Q 1894 3584 2278 3584 
Q 2916 3584 3314 3078 
Q 3713 2572 3713 1747 
Q 3713 922 3314 415 
Q 2916 -91 2278 -91 
Q 1894 -91 1617 61 
Q 1341 213 1159 525 
z
M 3116 1747 
Q 3116 2381 2855 2742 
Q 2594 3103 2138 3103 
Q 1681 3103 1420 2742 
Q 1159 2381 1159 1747 
Q 1159 1113 1420 752 
Q 1681 391 2138 391 
Q 2594 391 2855 752 
Q 3116 1113 3116 1747 
z
" transform="scale(0.015625)"/>
       <path id="DejaVuSans-69" d="M 603 3500 
L 1178 3500 
L 1178 0 
L 603 0 
L 603 3500 
z
M 603 4863 
L 1178 4863 
L 1178 4134 
L 603 4134 
L 603 4863 
z
" transform="scale(0.015625)"/>
       <path id="DejaVuSans-6f" d="M 1959 3097 
Q 1497 3097 1228 2736 
Q 959 2375 959 1747 
Q 959 1119 1226 758 
Q 1494 397 1959 397 
Q 2419 397 2687 759 
Q 2956 1122 2956 1747 
Q 2956 2369 2687 2733 
Q 2419 3097 1959 3097 
z
M 1959 3584 
Q 2709 3584 3137 3096 
Q 3566 2609 3566 1747 
Q 3566 888 3137 398 
Q 2709 -91 1959 -91 
Q 1206 -91 779 398 
Q 353 888 353 1747 
Q 353 2609 779 3096 
Q 1206 3584 1959 3584 
z
" transform="scale(0.015625)"/>
       <path id="DejaVuSans-2c" d="M 750 794 
L 1409 794 
L 1409 256 
L 897 -744 
L 494 -744 
L 750 256 
L 750 794 
z
" transform="scale(0.015625)"/>
       <path id="DejaVuSans-Oblique-52" d="M 1613 4147 
L 1294 2491 
L 2106 2491 
Q 2584 2491 2879 2755 
Q 3175 3019 3175 3444 
Q 3175 3784 2976 3965 
Q 2778 4147 2406 4147 
L 1613 4147 
z
M 2772 2241 
Q 2972 2194 3105 2009 
Q 3238 1825 3413 1275 
L 3809 0 
L 3144 0 
L 2778 1197 
Q 2638 1659 2453 1815 
Q 2269 1972 1888 1972 
L 1191 1972 
L 806 0 
L 172 0 
L 1081 4666 
L 2503 4666 
Q 3150 4666 3495 4373 
Q 3841 4081 3841 3531 
Q 3841 3044 3547 2687 
Q 3253 2331 2772 2241 
z
" transform="scale(0.015625)"/>
       <path id="DejaVuSans-Oblique-3b8" d="M 2913 2219 
L 925 2219 
Q 791 1284 928 888 
Q 1100 400 1566 400 
Q 2034 400 2391 891 
Q 2703 1322 2913 2219 
z
M 3009 2750 
Q 3094 3638 2984 3950 
Q 2813 4444 2353 4444 
Q 1875 4444 1525 3956 
Q 1250 3563 1034 2750 
L 3009 2750 
z
M 2444 4913 
Q 3194 4913 3494 4250 
Q 3794 3591 3566 2422 
Q 3341 1256 2781 594 
Q 2225 -72 1475 -72 
Q 722 -72 425 594 
Q 128 1256 353 2422 
Q 581 3591 1134 4250 
Q 1691 4913 2444 4913 
z
" transform="scale(0.015625)"/>
      </defs>
      <use xlink:href="#DejaVuSans-4c" transform="translate(0 0.015625)"/>
      <use xlink:href="#DejaVuSans-65" transform="translate(55.712891 0.015625)"/>
      <use xlink:href="#DejaVuSans-61" transform="translate(117.236328 0.015625)"/>
      <use xlink:href="#DejaVuSans-72" transform="translate(178.515625 0.015625)"/>
      <use xlink:href="#DejaVuSans-6e" transform="translate(219.628906 0.015625)"/>
      <use xlink:href="#DejaVuSans-65" transform="translate(283.007812 0.015625)"/>
      <use xlink:href="#DejaVuSans-64" transform="translate(344.53125 0.015625)"/>
      <use xlink:href="#DejaVuSans-20" transform="translate(408.007812 0.015625)"/>
      <use xlink:href="#DejaVuSans-70" transform="translate(439.794922 0.015625)"/>
      <use xlink:href="#DejaVuSans-72" transform="translate(503.271484 0.015625)"/>
      <use xlink:href="#DejaVuSans-69" transform="translate(544.384766 0.015625)"/>
      <use xlink:href="#DejaVuSans-6f" transform="translate(572.167969 0.015625)"/>
      <use xlink:href="#DejaVuSans-72" transform="translate(633.349609 0.015625)"/>
      <use xlink:href="#DejaVuSans-2c" transform="translate(674.462891 0.015625)"/>
      <use xlink:href="#DejaVuSans-20" transform="translate(706.25 0.015625)"/>
      <use xlink:href="#DejaVuSans-Oblique-52" transform="translate(738.037109 0.015625)"/>
      <use xlink:href="#DejaVuSans-Oblique-3b8" transform="translate(807.519531 -16.390625) scale(0.7)"/>
     </g>
    </g>
   </g>
   <g id="PolyCollection_1">
    <defs>
     <path id="mdb9e360321" d="M 76.873449 -55.362438 
L 76.257551 -55.362438 
L 76.132118 -56.252637 
L 75.969647 -57.142836 
L 75.765037 -58.033035 
L 75.514653 -58.923235 
L 75.217148 -59.813434 
L 74.874247 -60.703633 
L 74.491341 -61.593833 
L 74.077777 -62.484032 
L 73.646697 -63.374231 
L 73.21439 -64.26443 
L 72.799124 -65.15463 
L 72.419567 -66.044829 
L 72.092942 -66.935028 
L 71.833154 -67.825228 
L 71.649133 -68.715427 
L 71.543638 -69.605626 
L 71.512708 -70.495826 
L 71.545859 -71.386025 
L 71.627012 -72.276224 
L 71.736032 -73.166423 
L 71.850676 -74.056623 
L 71.948661 -74.946822 
L 72.009581 -75.837021 
L 72.01641 -76.727221 
L 71.956422 -77.61742 
L 71.821428 -78.507619 
L 71.607391 -79.397819 
L 71.313531 -80.288018 
L 70.941159 -81.178217 
L 70.492488 -82.068416 
L 69.96967 -82.958616 
L 69.374266 -83.848815 
L 68.707238 -84.739014 
L 67.969467 -85.629214 
L 67.162677 -86.519413 
L 66.290558 -87.409612 
L 65.359828 -88.299811 
L 64.380957 -89.190011 
L 63.368363 -90.08021 
L 62.339946 -90.970409 
L 61.315974 -91.860609 
L 60.317466 -92.750808 
L 59.364344 -93.641007 
L 58.473668 -94.531207 
L 57.658318 -95.421406 
L 56.926389 -96.311605 
L 56.281456 -97.201804 
L 55.723701 -98.092004 
L 55.251685 -98.982203 
L 54.864446 -99.872402 
L 54.563447 -100.762602 
L 54.353958 -101.652801 
L 54.2455 -102.543 
L 54.251176 -103.4332 
L 54.385925 -104.323399 
L 54.663957 -105.213598 
L 55.095837 -106.103797 
L 55.685735 -106.993997 
L 56.429415 -107.884196 
L 57.313353 -108.774395 
L 58.315214 -109.664595 
L 59.405639 -110.554794 
L 60.551058 -111.444993 
L 61.717065 -112.335192 
L 62.87178 -113.225392 
L 63.988672 -114.115591 
L 65.048428 -115.00579 
L 66.039658 -115.89599 
L 66.958431 -116.786189 
L 67.806874 -117.676388 
L 68.591181 -118.566588 
L 69.319438 -119.456787 
L 69.99966 -120.346986 
L 70.638329 -121.237185 
L 71.239588 -122.127385 
L 71.805089 -123.017584 
L 72.334409 -123.907783 
L 72.825808 -124.797983 
L 73.277139 -125.688182 
L 73.686697 -126.578381 
L 74.053843 -127.468581 
L 74.379348 -128.35878 
L 74.665423 -129.248979 
L 74.915486 -130.139178 
L 75.133759 -131.029378 
L 75.324786 -131.919577 
L 75.492959 -132.809776 
L 75.642154 -133.699976 
L 75.775487 -134.590175 
L 75.895233 -135.480374 
L 76.002878 -136.370574 
L 76.099275 -137.260773 
L 76.184854 -138.150972 
L 76.259845 -139.041171 
L 76.324472 -139.931371 
L 76.379087 -140.82157 
L 76.424248 -141.711769 
L 76.460728 -142.601969 
L 76.489484 -143.492168 
L 76.641516 -143.492168 
L 76.641516 -143.492168 
L 76.670272 -142.601969 
L 76.706752 -141.711769 
L 76.751913 -140.82157 
L 76.806528 -139.931371 
L 76.871155 -139.041171 
L 76.946146 -138.150972 
L 77.031725 -137.260773 
L 77.128122 -136.370574 
L 77.235767 -135.480374 
L 77.355513 -134.590175 
L 77.488846 -133.699976 
L 77.638041 -132.809776 
L 77.806214 -131.919577 
L 77.997241 -131.029378 
L 78.215514 -130.139178 
L 78.465577 -129.248979 
L 78.751652 -128.35878 
L 79.077157 -127.468581 
L 79.444303 -126.578381 
L 79.853861 -125.688182 
L 80.305192 -124.797983 
L 80.796591 -123.907783 
L 81.325911 -123.017584 
L 81.891412 -122.127385 
L 82.492671 -121.237185 
L 83.13134 -120.346986 
L 83.811562 -119.456787 
L 84.539819 -118.566588 
L 85.324126 -117.676388 
L 86.172569 -116.786189 
L 87.091342 -115.89599 
L 88.082572 -115.00579 
L 89.142328 -114.115591 
L 90.25922 -113.225392 
L 91.413935 -112.335192 
L 92.579942 -111.444993 
L 93.725361 -110.554794 
L 94.815786 -109.664595 
L 95.817647 -108.774395 
L 96.701585 -107.884196 
L 97.445265 -106.993997 
L 98.035163 -106.103797 
L 98.467043 -105.213598 
L 98.745075 -104.323399 
L 98.879824 -103.4332 
L 98.8855 -102.543 
L 98.777042 -101.652801 
L 98.567553 -100.762602 
L 98.266554 -99.872402 
L 97.879315 -98.982203 
L 97.407299 -98.092004 
L 96.849544 -97.201804 
L 96.204611 -96.311605 
L 95.472682 -95.421406 
L 94.657332 -94.531207 
L 93.766656 -93.641007 
L 92.813534 -92.750808 
L 91.815026 -91.860609 
L 90.791054 -90.970409 
L 89.762637 -90.08021 
L 88.750043 -89.190011 
L 87.771172 -88.299811 
L 86.840442 -87.409612 
L 85.968323 -86.519413 
L 85.161533 -85.629214 
L 84.423762 -84.739014 
L 83.756734 -83.848815 
L 83.16133 -82.958616 
L 82.638512 -82.068416 
L 82.189841 -81.178217 
L 81.817469 -80.288018 
L 81.523609 -79.397819 
L 81.309572 -78.507619 
L 81.174578 -77.61742 
L 81.11459 -76.727221 
L 81.121419 -75.837021 
L 81.182339 -74.946822 
L 81.280324 -74.056623 
L 81.394968 -73.166423 
L 81.503988 -72.276224 
L 81.585141 -71.386025 
L 81.618292 -70.495826 
L 81.587362 -69.605626 
L 81.481867 -68.715427 
L 81.297846 -67.825228 
L 81.038058 -66.935028 
L 80.711433 -66.044829 
L 80.331876 -65.15463 
L 79.91661 -64.26443 
L 79.484303 -63.374231 
L 79.053223 -62.484032 
L 78.639659 -61.593833 
L 78.256753 -60.703633 
L 77.913852 -59.813434 
L 77.616347 -58.923235 
L 77.365963 -58.033035 
L 77.161353 -57.142836 
L 76.998882 -56.252637 
L 76.873449 -55.362438 
z
" style="stroke: #4c4c4c; stroke-width: 1.5"/>
    </defs>
    <g clip-path="url(#p72c5408349)">
     <use xlink:href="#mdb9e360321" x="0" y="274.242437" style="fill: #5875a4; stroke: #4c4c4c; stroke-width: 1.5"/>
    </g>
   </g>
   <g id="PolyCollection_2">
    <defs>
     <path id="m36b524db24" d="M 132.454142 -85.590263 
L 132.276858 -85.590263 
L 132.241266 -86.934897 
L 132.194545 -88.279531 
L 132.134448 -89.624165 
L 132.058672 -90.968799 
L 131.964983 -92.313433 
L 131.851342 -93.658067 
L 131.716043 -95.002701 
L 131.557824 -96.347335 
L 131.375959 -97.691969 
L 131.170293 -99.036603 
L 130.941246 -100.381237 
L 130.689756 -101.725871 
L 130.417194 -103.070505 
L 130.125268 -104.415139 
L 129.815928 -105.759773 
L 129.491303 -107.104407 
L 129.15369 -108.449041 
L 128.805577 -109.793675 
L 128.449725 -111.138309 
L 128.089249 -112.482943 
L 127.727683 -113.827577 
L 127.368993 -115.172211 
L 127.017477 -116.516845 
L 126.677569 -117.861479 
L 126.353513 -119.206113 
L 126.048957 -120.550747 
L 125.766509 -121.895381 
L 125.507324 -123.240015 
L 125.270808 -124.584649 
L 125.054491 -125.929282 
L 124.854137 -127.273916 
L 124.664079 -128.61855 
L 124.477772 -129.963184 
L 124.288491 -131.307818 
L 124.090072 -132.652452 
L 123.877622 -133.997086 
L 123.64807 -135.34172 
L 123.400514 -136.686354 
L 123.136322 -138.030988 
L 122.858996 -139.375622 
L 122.573837 -140.720256 
L 122.287496 -142.06489 
L 122.007462 -143.409524 
L 121.741579 -144.754158 
L 121.497611 -146.098792 
L 121.282896 -147.443426 
L 121.104074 -148.78806 
L 120.966859 -150.132694 
L 120.87585 -151.477328 
L 120.834347 -152.821962 
L 120.844178 -154.166596 
L 120.905552 -155.51123 
L 121.01697 -156.855864 
L 121.175217 -158.200498 
L 121.375481 -159.545132 
L 121.611595 -160.889766 
L 121.876407 -162.2344 
L 122.162245 -163.579034 
L 122.461442 -164.923668 
L 122.766865 -166.268302 
L 123.0724 -167.612936 
L 123.373349 -168.95757 
L 123.666706 -170.302204 
L 123.951285 -171.646838 
L 124.22769 -172.991472 
L 124.498132 -174.336106 
L 124.766092 -175.68074 
L 125.035875 -177.025374 
L 125.312071 -178.370008 
L 125.598984 -179.714642 
L 125.900097 -181.059276 
L 126.217611 -182.40391 
L 126.552144 -183.748544 
L 126.902607 -185.093178 
L 127.266282 -186.437812 
L 127.639086 -187.782446 
L 128.01599 -189.12708 
L 128.391509 -190.471714 
L 128.760211 -191.816348 
L 129.117167 -193.160982 
L 129.458285 -194.505616 
L 129.780495 -195.85025 
L 130.08179 -197.194884 
L 130.361126 -198.539518 
L 130.618247 -199.884152 
L 130.853452 -201.228786 
L 131.067375 -202.57342 
L 131.260805 -203.918054 
L 131.434561 -205.262688 
L 131.58944 -206.607322 
L 131.72622 -207.951956 
L 131.845695 -209.29659 
L 131.948735 -210.641224 
L 132.036326 -211.985858 
L 132.109609 -213.330492 
L 132.16987 -214.675126 
L 132.218518 -216.01976 
L 132.257041 -217.364394 
L 132.286937 -218.709028 
L 132.444063 -218.709028 
L 132.444063 -218.709028 
L 132.473959 -217.364394 
L 132.512482 -216.01976 
L 132.56113 -214.675126 
L 132.621391 -213.330492 
L 132.694674 -211.985858 
L 132.782265 -210.641224 
L 132.885305 -209.29659 
L 133.00478 -207.951956 
L 133.14156 -206.607322 
L 133.296439 -205.262688 
L 133.470195 -203.918054 
L 133.663625 -202.57342 
L 133.877548 -201.228786 
L 134.112753 -199.884152 
L 134.369874 -198.539518 
L 134.64921 -197.194884 
L 134.950505 -195.85025 
L 135.272715 -194.505616 
L 135.613833 -193.160982 
L 135.970789 -191.816348 
L 136.339491 -190.471714 
L 136.71501 -189.12708 
L 137.091914 -187.782446 
L 137.464718 -186.437812 
L 137.828393 -185.093178 
L 138.178856 -183.748544 
L 138.513389 -182.40391 
L 138.830903 -181.059276 
L 139.132016 -179.714642 
L 139.418929 -178.370008 
L 139.695125 -177.025374 
L 139.964908 -175.68074 
L 140.232868 -174.336106 
L 140.50331 -172.991472 
L 140.779715 -171.646838 
L 141.064294 -170.302204 
L 141.357651 -168.95757 
L 141.6586 -167.612936 
L 141.964135 -166.268302 
L 142.269558 -164.923668 
L 142.568755 -163.579034 
L 142.854593 -162.2344 
L 143.119405 -160.889766 
L 143.355519 -159.545132 
L 143.555783 -158.200498 
L 143.71403 -156.855864 
L 143.825448 -155.51123 
L 143.886822 -154.166596 
L 143.896653 -152.821962 
L 143.85515 -151.477328 
L 143.764141 -150.132694 
L 143.626926 -148.78806 
L 143.448104 -147.443426 
L 143.233389 -146.098792 
L 142.989421 -144.754158 
L 142.723538 -143.409524 
L 142.443504 -142.06489 
L 142.157163 -140.720256 
L 141.872004 -139.375622 
L 141.594678 -138.030988 
L 141.330486 -136.686354 
L 141.08293 -135.34172 
L 140.853378 -133.997086 
L 140.640928 -132.652452 
L 140.442509 -131.307818 
L 140.253228 -129.963184 
L 140.066921 -128.61855 
L 139.876863 -127.273916 
L 139.676509 -125.929282 
L 139.460192 -124.584649 
L 139.223676 -123.240015 
L 138.964491 -121.895381 
L 138.682043 -120.550747 
L 138.377487 -119.206113 
L 138.053431 -117.861479 
L 137.713523 -116.516845 
L 137.362007 -115.172211 
L 137.003317 -113.827577 
L 136.641751 -112.482943 
L 136.281275 -111.138309 
L 135.925423 -109.793675 
L 135.57731 -108.449041 
L 135.239697 -107.104407 
L 134.915072 -105.759773 
L 134.605732 -104.415139 
L 134.313806 -103.070505 
L 134.041244 -101.725871 
L 133.789754 -100.381237 
L 133.560707 -99.036603 
L 133.355041 -97.691969 
L 133.173176 -96.347335 
L 133.014957 -95.002701 
L 132.879658 -93.658067 
L 132.766017 -92.313433 
L 132.672328 -90.968799 
L 132.596552 -89.624165 
L 132.536455 -88.279531 
L 132.489734 -86.934897 
L 132.454142 -85.590263 
z
" style="stroke: #4c4c4c; stroke-width: 1.5"/>
    </defs>
    <g clip-path="url(#p72c5408349)">
     <use xlink:href="#m36b524db24" x="0" y="274.242437" style="fill: #cc8963; stroke: #4c4c4c; stroke-width: 1.5"/>
    </g>
   </g>
   <g id="PolyCollection_3">
    <defs>
     <path id="mf595a40424" d="M 188.249341 -92.319554 
L 188.081659 -92.319554 
L 188.050995 -93.982613 
L 188.011774 -95.645673 
L 187.962513 -97.308732 
L 187.901725 -98.971791 
L 187.827968 -100.634851 
L 187.739903 -102.29791 
L 187.636344 -103.96097 
L 187.516294 -105.624029 
L 187.378975 -107.287089 
L 187.223835 -108.950148 
L 187.050553 -110.613207 
L 186.85903 -112.276267 
L 186.649375 -113.939326 
L 186.421905 -115.602386 
L 186.177143 -117.265445 
L 185.915846 -118.928505 
L 185.639037 -120.591564 
L 185.34807 -122.254623 
L 185.044706 -123.917683 
L 184.731183 -125.580742 
L 184.410282 -127.243802 
L 184.085347 -128.906861 
L 183.760255 -130.569921 
L 183.439297 -132.23298 
L 183.126981 -133.89604 
L 182.827742 -135.559099 
L 182.545598 -137.222158 
L 182.28377 -138.885218 
L 182.04433 -140.548277 
L 181.827924 -142.211337 
L 181.633615 -143.874396 
L 181.458892 -145.537456 
L 181.299853 -147.200515 
L 181.151565 -148.863574 
L 181.00856 -150.526634 
L 180.865429 -152.189693 
L 180.717438 -153.852753 
L 180.561105 -155.515812 
L 180.394672 -157.178872 
L 180.218412 -158.841931 
L 180.03474 -160.50499 
L 179.848111 -162.16805 
L 179.664707 -163.831109 
L 179.491952 -165.494169 
L 179.337891 -167.157228 
L 179.210499 -168.820288 
L 179.116989 -170.483347 
L 179.063169 -172.146406 
L 179.052928 -173.809466 
L 179.087889 -175.472525 
L 179.167255 -177.135585 
L 179.287876 -178.798644 
L 179.444517 -180.461704 
L 179.630318 -182.124763 
L 179.837379 -183.787822 
L 180.057439 -185.450882 
L 180.282573 -187.113941 
L 180.505832 -188.777001 
L 180.721785 -190.44006 
L 180.926899 -192.10312 
L 181.119736 -193.766179 
L 181.300938 -195.429239 
L 181.473026 -197.092298 
L 181.64003 -198.755357 
L 181.806981 -200.418417 
L 181.97933 -202.081476 
L 182.162338 -203.744536 
L 182.360501 -205.407595 
L 182.577055 -207.070655 
L 182.813618 -208.733714 
L 183.069992 -210.396773 
L 183.344157 -212.059833 
L 183.632451 -213.722892 
L 183.929924 -215.385952 
L 184.23083 -217.049011 
L 184.529189 -218.712071 
L 184.819375 -220.37513 
L 185.096636 -222.038189 
L 185.357489 -223.701249 
L 185.59995 -225.364308 
L 185.823555 -227.027368 
L 186.029196 -228.690427 
L 186.218797 -230.353487 
L 186.394887 -232.016546 
L 186.560138 -233.679605 
L 186.716949 -235.342665 
L 186.867124 -237.005724 
L 187.01168 -238.668784 
L 187.150814 -240.331843 
L 187.283996 -241.994903 
L 187.410167 -243.657962 
L 187.527991 -245.321021 
L 187.636118 -246.984081 
L 187.733415 -248.64714 
L 187.819126 -250.3102 
L 187.892967 -251.973259 
L 187.95514 -253.636319 
L 188.006279 -255.299378 
L 188.047363 -256.962437 
L 188.283637 -256.962437 
L 188.283637 -256.962437 
L 188.324721 -255.299378 
L 188.37586 -253.636319 
L 188.438033 -251.973259 
L 188.511874 -250.3102 
L 188.597585 -248.64714 
L 188.694882 -246.984081 
L 188.803009 -245.321021 
L 188.920833 -243.657962 
L 189.047004 -241.994903 
L 189.180186 -240.331843 
L 189.31932 -238.668784 
L 189.463876 -237.005724 
L 189.614051 -235.342665 
L 189.770862 -233.679605 
L 189.936113 -232.016546 
L 190.112203 -230.353487 
L 190.301804 -228.690427 
L 190.507445 -227.027368 
L 190.73105 -225.364308 
L 190.973511 -223.701249 
L 191.234364 -222.038189 
L 191.511625 -220.37513 
L 191.801811 -218.712071 
L 192.10017 -217.049011 
L 192.401076 -215.385952 
L 192.698549 -213.722892 
L 192.986843 -212.059833 
L 193.261008 -210.396773 
L 193.517382 -208.733714 
L 193.753945 -207.070655 
L 193.970499 -205.407595 
L 194.168662 -203.744536 
L 194.35167 -202.081476 
L 194.524019 -200.418417 
L 194.69097 -198.755357 
L 194.857974 -197.092298 
L 195.030062 -195.429239 
L 195.211264 -193.766179 
L 195.404101 -192.10312 
L 195.609215 -190.44006 
L 195.825168 -188.777001 
L 196.048427 -187.113941 
L 196.273561 -185.450882 
L 196.493621 -183.787822 
L 196.700682 -182.124763 
L 196.886483 -180.461704 
L 197.043124 -178.798644 
L 197.163745 -177.135585 
L 197.243111 -175.472525 
L 197.278072 -173.809466 
L 197.267831 -172.146406 
L 197.214011 -170.483347 
L 197.120501 -168.820288 
L 196.993109 -167.157228 
L 196.839048 -165.494169 
L 196.666293 -163.831109 
L 196.482889 -162.16805 
L 196.29626 -160.50499 
L 196.112588 -158.841931 
L 195.936328 -157.178872 
L 195.769895 -155.515812 
L 195.613562 -153.852753 
L 195.465571 -152.189693 
L 195.32244 -150.526634 
L 195.179435 -148.863574 
L 195.031147 -147.200515 
L 194.872108 -145.537456 
L 194.697385 -143.874396 
L 194.503076 -142.211337 
L 194.28667 -140.548277 
L 194.04723 -138.885218 
L 193.785402 -137.222158 
L 193.503258 -135.559099 
L 193.204019 -133.89604 
L 192.891703 -132.23298 
L 192.570745 -130.569921 
L 192.245653 -128.906861 
L 191.920718 -127.243802 
L 191.599817 -125.580742 
L 191.286294 -123.917683 
L 190.98293 -122.254623 
L 190.691963 -120.591564 
L 190.415154 -118.928505 
L 190.153857 -117.265445 
L 189.909095 -115.602386 
L 189.681625 -113.939326 
L 189.47197 -112.276267 
L 189.280447 -110.613207 
L 189.107165 -108.950148 
L 188.952025 -107.287089 
L 188.814706 -105.624029 
L 188.694656 -103.96097 
L 188.591097 -102.29791 
L 188.503032 -100.634851 
L 188.429275 -98.971791 
L 188.368487 -97.308732 
L 188.319226 -95.645673 
L 188.280005 -93.982613 
L 188.249341 -92.319554 
z
" style="stroke: #4c4c4c; stroke-width: 1.5"/>
    </defs>
    <g clip-path="url(#p72c5408349)">
     <use xlink:href="#mf595a40424" x="0" y="274.242437" style="fill: #5f9e6e; stroke: #4c4c4c; stroke-width: 1.5"/>
    </g>
   </g>
   <g id="PolyCollection_4">
    <defs>
     <path id="m40041e83a1" d="M 244.05376 -85.537042 
L 243.87724 -85.537042 
L 243.841793 -86.882531 
L 243.795261 -88.228019 
L 243.735402 -89.573508 
L 243.659924 -90.918997 
L 243.566598 -92.264485 
L 243.45339 -93.609974 
L 243.318597 -94.955462 
L 243.160955 -96.300951 
L 242.979733 -97.64644 
L 242.774767 -98.991928 
L 242.546459 -100.337417 
L 242.295728 -101.682906 
L 242.023921 -103.028394 
L 241.732715 -104.373883 
L 241.424032 -105.719371 
L 241.099969 -107.06486 
L 240.762793 -108.410349 
L 240.414969 -109.755837 
L 240.059239 -111.101326 
L 239.698708 -112.446814 
L 239.336914 -113.792303 
L 238.977834 -115.137792 
L 238.625794 -116.48328 
L 238.285265 -117.828769 
L 237.960539 -119.174258 
L 237.655314 -120.519746 
L 237.372251 -121.865235 
L 237.11255 -123.210723 
L 236.875649 -124.556212 
L 236.659093 -125.901701 
L 236.45864 -127.247189 
L 236.268594 -128.592678 
L 236.082362 -129.938166 
L 235.893156 -131.283655 
L 235.694746 -132.629144 
L 235.482174 -133.974632 
L 235.252322 -135.320121 
L 235.004261 -136.665609 
L 234.739364 -138.011098 
L 234.461163 -139.356587 
L 234.175022 -140.702075 
L 233.887672 -142.047564 
L 233.606697 -143.393053 
L 233.340033 -144.738541 
L 233.095529 -146.08403 
L 232.880588 -147.429518 
L 232.701882 -148.775007 
L 232.565133 -150.120496 
L 232.47491 -151.465984 
L 232.434462 -152.811473 
L 232.445538 -154.156961 
L 232.508259 -155.50245 
L 232.62103 -156.847939 
L 232.780542 -158.193427 
L 232.981899 -159.538916 
L 233.218866 -160.884405 
L 233.484239 -162.229893 
L 233.770316 -163.575382 
L 234.069419 -164.92087 
L 234.374426 -166.266359 
L 234.679252 -167.611848 
L 234.979244 -168.957336 
L 235.27146 -170.302825 
L 235.554785 -171.648313 
L 235.829907 -172.993802 
L 236.099122 -174.339291 
L 236.365994 -175.684779 
L 236.634903 -177.030268 
L 236.910497 -178.375757 
L 237.197119 -179.721245 
L 237.498263 -181.066734 
L 237.816117 -182.412222 
L 238.15126 -183.757711 
L 238.50254 -185.1032 
L 238.867164 -186.448688 
L 239.240969 -187.794177 
L 239.618844 -189.139665 
L 239.995233 -190.485154 
L 240.364652 -191.830643 
L 240.722134 -193.176131 
L 241.063572 -194.52162 
L 241.3859 -195.867109 
L 241.687126 -197.212597 
L 241.96624 -198.558086 
L 242.223017 -199.903574 
L 242.457795 -201.249063 
L 242.671244 -202.594552 
L 242.864182 -203.94004 
L 243.037454 -205.285529 
L 243.191878 -206.631017 
L 243.32824 -207.976506 
L 243.447345 -209.321995 
L 243.550062 -210.667483 
L 243.637381 -212.012972 
L 243.710435 -213.358461 
L 243.770508 -214.703949 
L 243.819005 -216.049438 
L 243.857407 -217.394926 
L 243.887209 -218.740415 
L 244.043791 -218.740415 
L 244.043791 -218.740415 
L 244.073593 -217.394926 
L 244.111995 -216.049438 
L 244.160492 -214.703949 
L 244.220565 -213.358461 
L 244.293619 -212.012972 
L 244.380938 -210.667483 
L 244.483655 -209.321995 
L 244.60276 -207.976506 
L 244.739122 -206.631017 
L 244.893546 -205.285529 
L 245.066818 -203.94004 
L 245.259756 -202.594552 
L 245.473205 -201.249063 
L 245.707983 -199.903574 
L 245.96476 -198.558086 
L 246.243874 -197.212597 
L 246.5451 -195.867109 
L 246.867428 -194.52162 
L 247.208866 -193.176131 
L 247.566348 -191.830643 
L 247.935767 -190.485154 
L 248.312156 -189.139665 
L 248.690031 -187.794177 
L 249.063836 -186.448688 
L 249.42846 -185.1032 
L 249.77974 -183.757711 
L 250.114883 -182.412222 
L 250.432737 -181.066734 
L 250.733881 -179.721245 
L 251.020503 -178.375757 
L 251.296097 -177.030268 
L 251.565006 -175.684779 
L 251.831878 -174.339291 
L 252.101093 -172.993802 
L 252.376215 -171.648313 
L 252.65954 -170.302825 
L 252.951756 -168.957336 
L 253.251748 -167.611848 
L 253.556574 -166.266359 
L 253.861581 -164.92087 
L 254.160684 -163.575382 
L 254.446761 -162.229893 
L 254.712134 -160.884405 
L 254.949101 -159.538916 
L 255.150458 -158.193427 
L 255.30997 -156.847939 
L 255.422741 -155.50245 
L 255.485462 -154.156961 
L 255.496538 -152.811473 
L 255.45609 -151.465984 
L 255.365867 -150.120496 
L 255.229118 -148.775007 
L 255.050412 -147.429518 
L 254.835471 -146.08403 
L 254.590967 -144.738541 
L 254.324303 -143.393053 
L 254.043328 -142.047564 
L 253.755978 -140.702075 
L 253.469837 -139.356587 
L 253.191636 -138.011098 
L 252.926739 -136.665609 
L 252.678678 -135.320121 
L 252.448826 -133.974632 
L 252.236254 -132.629144 
L 252.037844 -131.283655 
L 251.848638 -129.938166 
L 251.662406 -128.592678 
L 251.47236 -127.247189 
L 251.271907 -125.901701 
L 251.055351 -124.556212 
L 250.81845 -123.210723 
L 250.558749 -121.865235 
L 250.275686 -120.519746 
L 249.970461 -119.174258 
L 249.645735 -117.828769 
L 249.305206 -116.48328 
L 248.953166 -115.137792 
L 248.594086 -113.792303 
L 248.232292 -112.446814 
L 247.871761 -111.101326 
L 247.516031 -109.755837 
L 247.168207 -108.410349 
L 246.831031 -107.06486 
L 246.506968 -105.719371 
L 246.198285 -104.373883 
L 245.907079 -103.028394 
L 245.635272 -101.682906 
L 245.384541 -100.337417 
L 245.156233 -98.991928 
L 244.951267 -97.64644 
L 244.770045 -96.300951 
L 244.612403 -94.955462 
L 244.47761 -93.609974 
L 244.364402 -92.264485 
L 244.271076 -90.918997 
L 244.195598 -89.573508 
L 244.135739 -88.228019 
L 244.089207 -86.882531 
L 244.05376 -85.537042 
z
" style="stroke: #4c4c4c; stroke-width: 1.5"/>
    </defs>
    <g clip-path="url(#p72c5408349)">
     <use xlink:href="#m40041e83a1" x="0" y="274.242437" style="fill: #b55d60; stroke: #4c4c4c; stroke-width: 1.5"/>
    </g>
   </g>
   <g id="PolyCollection_5">
    <defs>
     <path id="m6c409f60bc" d="M 300.074169 -55.369744 
L 299.456831 -55.369744 
L 299.331306 -56.259357 
L 299.168797 -57.14897 
L 298.96424 -58.038582 
L 298.714037 -58.928195 
L 298.41688 -59.817808 
L 298.074521 -60.707421 
L 297.692366 -61.597033 
L 297.279749 -62.486646 
L 296.849775 -63.376259 
L 296.418665 -64.265871 
L 296.004596 -65.155484 
L 295.626127 -66.045097 
L 295.300376 -66.93471 
L 295.041157 -67.824322 
L 294.857344 -68.713935 
L 294.751689 -69.603548 
L 294.720271 -70.493161 
L 294.7527 -71.382773 
L 294.833021 -72.272386 
L 294.941244 -73.161999 
L 295.055257 -74.051612 
L 295.152877 -74.941224 
L 295.213747 -75.830837 
L 295.220832 -76.72045 
L 295.161337 -77.610063 
L 295.026963 -78.499675 
L 294.813534 -79.389288 
L 294.520134 -80.278901 
L 294.147955 -81.168514 
L 293.699135 -82.058126 
L 293.175802 -82.947739 
L 292.57955 -83.837352 
L 291.91143 -84.726965 
L 291.172461 -85.616577 
L 290.36454 -86.50619 
L 289.491551 -87.395803 
L 288.560403 -88.285416 
L 287.581738 -89.175028 
L 286.570094 -90.064641 
L 285.543425 -90.954254 
L 284.521958 -91.843867 
L 283.526578 -92.733479 
L 282.57697 -93.623092 
L 281.68988 -94.512705 
L 280.87782 -95.402318 
L 280.148501 -96.29193 
L 279.505143 -97.181543 
L 278.94764 -98.071156 
L 278.474365 -98.960768 
L 278.084285 -99.850381 
L 277.778917 -100.739994 
L 277.563701 -101.629607 
L 277.448429 -102.519219 
L 277.446546 -103.408832 
L 277.573377 -104.298445 
L 277.843535 -105.188058 
L 278.267969 -106.07767 
L 278.851198 -106.967283 
L 279.589269 -107.856896 
L 280.468861 -108.746509 
L 281.467754 -109.636121 
L 282.55661 -110.525734 
L 283.701791 -111.415347 
L 284.868744 -112.30496 
L 286.025384 -113.194572 
L 287.144938 -114.084185 
L 288.207835 -114.973798 
L 289.202436 -115.863411 
L 290.124589 -116.753023 
L 290.976246 -117.642636 
L 291.763473 -118.532249 
L 292.49428 -119.421862 
L 293.17666 -120.311474 
L 293.817114 -121.201087 
L 294.419836 -122.0907 
L 294.986553 -122.980313 
L 295.516922 -123.869925 
L 296.009284 -124.759538 
L 296.461564 -125.649151 
L 296.872108 -126.538764 
L 297.240312 -127.428376 
L 297.566957 -128.317989 
L 297.854246 -129.207602 
L 298.105574 -130.097214 
L 298.325132 -130.986827 
L 298.517421 -131.87644 
L 298.6868 -132.766053 
L 298.83711 -133.655665 
L 298.971443 -134.545278 
L 299.092059 -135.434891 
L 299.20044 -136.324504 
L 299.297441 -137.214116 
L 299.383502 -138.103729 
L 299.458868 -138.993342 
L 299.523778 -139.882955 
L 299.578602 -140.772567 
L 299.623914 -141.66218 
L 299.660502 -142.551793 
L 299.689331 -143.441406 
L 299.841669 -143.441406 
L 299.841669 -143.441406 
L 299.870498 -142.551793 
L 299.907086 -141.66218 
L 299.952398 -140.772567 
L 300.007222 -139.882955 
L 300.072132 -138.993342 
L 300.147498 -138.103729 
L 300.233559 -137.214116 
L 300.33056 -136.324504 
L 300.438941 -135.434891 
L 300.559557 -134.545278 
L 300.69389 -133.655665 
L 300.8442 -132.766053 
L 301.013579 -131.87644 
L 301.205868 -130.986827 
L 301.425426 -130.097214 
L 301.676754 -129.207602 
L 301.964043 -128.317989 
L 302.290688 -127.428376 
L 302.658892 -126.538764 
L 303.069436 -125.649151 
L 303.521716 -124.759538 
L 304.014078 -123.869925 
L 304.544447 -122.980313 
L 305.111164 -122.0907 
L 305.713886 -121.201087 
L 306.35434 -120.311474 
L 307.03672 -119.421862 
L 307.767527 -118.532249 
L 308.554754 -117.642636 
L 309.406411 -116.753023 
L 310.328564 -115.863411 
L 311.323165 -114.973798 
L 312.386062 -114.084185 
L 313.505616 -113.194572 
L 314.662256 -112.30496 
L 315.829209 -111.415347 
L 316.97439 -110.525734 
L 318.063246 -109.636121 
L 319.062139 -108.746509 
L 319.941731 -107.856896 
L 320.679802 -106.967283 
L 321.263031 -106.07767 
L 321.687465 -105.188058 
L 321.957623 -104.298445 
L 322.084454 -103.408832 
L 322.082571 -102.519219 
L 321.967299 -101.629607 
L 321.752083 -100.739994 
L 321.446715 -99.850381 
L 321.056635 -98.960768 
L 320.58336 -98.071156 
L 320.025857 -97.181543 
L 319.382499 -96.29193 
L 318.65318 -95.402318 
L 317.84112 -94.512705 
L 316.95403 -93.623092 
L 316.004422 -92.733479 
L 315.009042 -91.843867 
L 313.987575 -90.954254 
L 312.960906 -90.064641 
L 311.949262 -89.175028 
L 310.970597 -88.285416 
L 310.039449 -87.395803 
L 309.16646 -86.50619 
L 308.358539 -85.616577 
L 307.61957 -84.726965 
L 306.95145 -83.837352 
L 306.355198 -82.947739 
L 305.831865 -82.058126 
L 305.383045 -81.168514 
L 305.010866 -80.278901 
L 304.717466 -79.389288 
L 304.504037 -78.499675 
L 304.369663 -77.610063 
L 304.310168 -76.72045 
L 304.317253 -75.830837 
L 304.378123 -74.941224 
L 304.475743 -74.051612 
L 304.589756 -73.161999 
L 304.697979 -72.272386 
L 304.7783 -71.382773 
L 304.810729 -70.493161 
L 304.779311 -69.603548 
L 304.673656 -68.713935 
L 304.489843 -67.824322 
L 304.230624 -66.93471 
L 303.904873 -66.045097 
L 303.526404 -65.155484 
L 303.112335 -64.265871 
L 302.681225 -63.376259 
L 302.251251 -62.486646 
L 301.838634 -61.597033 
L 301.456479 -60.707421 
L 301.11412 -59.817808 
L 300.816963 -58.928195 
L 300.56676 -58.038582 
L 300.362203 -57.14897 
L 300.199694 -56.259357 
L 300.074169 -55.369744 
z
" style="stroke: #4c4c4c; stroke-width: 1.5"/>
    </defs>
    <g clip-path="url(#p72c5408349)">
     <use xlink:href="#m6c409f60bc" x="0" y="274.242437" style="fill: #857aab; stroke: #4c4c4c; stroke-width: 1.5"/>
    </g>
   </g>
   <g id="line2d_7">
    <path d="M 76.5655 203.195439 
L 76.5655 147.957349 
" clip-path="url(#p72c5408349)" style="fill: none; stroke: #4c4c4c; stroke-width: 1.5; stroke-linecap: round"/>
   </g>
   <g id="line2d_8">
    <path d="M 76.5655 181.334974 
L 76.5655 166.237618 
" clip-path="url(#p72c5408349)" style="fill: none; stroke: #4c4c4c; stroke-width: 4.5; stroke-linecap: round"/>
   </g>
   <g id="line2d_9">
    <path d="M 132.3655 170.588298 
L 132.3655 73.597287 
" clip-path="url(#p72c5408349)" style="fill: none; stroke: #4c4c4c; stroke-width: 1.5; stroke-linecap: round"/>
   </g>
   <g id="line2d_10">
    <path d="M 132.3655 139.270725 
L 132.3655 106.319199 
" clip-path="url(#p72c5408349)" style="fill: none; stroke: #4c4c4c; stroke-width: 4.5; stroke-linecap: round"/>
   </g>
   <g id="line2d_11">
    <path d="M 188.1655 159.190599 
L 188.1655 40.012285 
" clip-path="url(#p72c5408349)" style="fill: none; stroke: #4c4c4c; stroke-width: 1.5; stroke-linecap: round"/>
   </g>
   <g id="line2d_12">
    <path d="M 188.1655 122.216316 
L 188.1655 79.654451 
" clip-path="url(#p72c5408349)" style="fill: none; stroke: #4c4c4c; stroke-width: 4.5; stroke-linecap: round"/>
   </g>
   <g id="line2d_13">
    <path d="M 243.9655 170.638025 
L 243.9655 73.569393 
" clip-path="url(#p72c5408349)" style="fill: none; stroke: #4c4c4c; stroke-width: 1.5; stroke-linecap: round"/>
   </g>
   <g id="line2d_14">
    <path d="M 243.9655 139.290092 
L 243.9655 106.217068 
" clip-path="url(#p72c5408349)" style="fill: none; stroke: #4c4c4c; stroke-width: 4.5; stroke-linecap: round"/>
   </g>
   <g id="line2d_15">
    <path d="M 299.7655 203.202493 
L 299.7655 147.966373 
" clip-path="url(#p72c5408349)" style="fill: none; stroke: #4c4c4c; stroke-width: 1.5; stroke-linecap: round"/>
   </g>
   <g id="line2d_16">
    <path d="M 299.7655 181.321291 
L 299.7655 166.259783 
" clip-path="url(#p72c5408349)" style="fill: none; stroke: #4c4c4c; stroke-width: 4.5; stroke-linecap: round"/>
   </g>
   <g id="patch_3">
    <path d="M 48.6655 228.96 
L 48.6655 7.2 
" style="fill: none; stroke: #cccccc; stroke-width: 1.25; stroke-linejoin: miter; stroke-linecap: square"/>
   </g>
   <g id="patch_4">
    <path d="M 327.6655 228.96 
L 327.6655 7.2 
" style="fill: none; stroke: #cccccc; stroke-width: 1.25; stroke-linejoin: miter; stroke-linecap: square"/>
   </g>
   <g id="patch_5">
    <path d="M 48.6655 228.96 
L 327.6655 228.96 
" style="fill: none; stroke: #cccccc; stroke-width: 1.25; stroke-linejoin: miter; stroke-linecap: square"/>
   </g>
   <g id="patch_6">
    <path d="M 48.6655 7.2 
L 327.6655 7.2 
" style="fill: none; stroke: #cccccc; stroke-width: 1.25; stroke-linejoin: miter; stroke-linecap: square"/>
   </g>
   <g id="PathCollection_1">
    <defs>
     <path id="ma7c6fe0d04" d="M 0 1.5 
C 0.397805 1.5 0.77937 1.341951 1.06066 1.06066 
C 1.341951 0.77937 1.5 0.397805 1.5 0 
C 1.5 -0.397805 1.341951 -0.77937 1.06066 -1.06066 
C 0.77937 -1.341951 0.397805 -1.5 0 -1.5 
C -0.397805 -1.5 -0.77937 -1.341951 -1.06066 -1.06066 
C -1.341951 -0.77937 -1.5 -0.397805 -1.5 0 
C -1.5 0.397805 -1.341951 0.77937 -1.06066 1.06066 
C -0.77937 1.341951 -0.397805 1.5 0 1.5 
z
" style="stroke: #4c4c4c"/>
    </defs>
    <g clip-path="url(#p72c5408349)">
     <use xlink:href="#ma7c6fe0d04" x="76.5655" y="173.09999" style="fill: #ffffff; stroke: #4c4c4c"/>
    </g>
   </g>
   <g id="PathCollection_2">
    <g clip-path="url(#p72c5408349)">
     <use xlink:href="#ma7c6fe0d04" x="132.3655" y="122.200065" style="fill: #ffffff; stroke: #4c4c4c"/>
    </g>
   </g>
   <g id="PathCollection_3">
    <g clip-path="url(#p72c5408349)">
     <use xlink:href="#ma7c6fe0d04" x="188.1655" y="100.38658" style="fill: #ffffff; stroke: #4c4c4c"/>
    </g>
   </g>
   <g id="PathCollection_4">
    <g clip-path="url(#p72c5408349)">
     <use xlink:href="#ma7c6fe0d04" x="243.9655" y="122.208845" style="fill: #ffffff; stroke: #4c4c4c"/>
    </g>
   </g>
   <g id="PathCollection_5">
    <g clip-path="url(#p72c5408349)">
     <use xlink:href="#ma7c6fe0d04" x="299.7655" y="173.157902" style="fill: #ffffff; stroke: #4c4c4c"/>
    </g>
   </g>
  </g>
 </g>
 <defs>
  <clipPath id="p72c5408349">
   <rect x="48.6655" y="7.2" width="279" height="221.76"/>
  </clipPath>
 </defs>
</svg>
