<?xml version="1.0" encoding="utf-8" standalone="no"?>
<!DOCTYPE svg PUBLIC "-//W3C//DTD SVG 1.1//EN"
  "http://www.w3.org/Graphics/SVG/1.1/DTD/svg11.dtd">
<svg xmlns:xlink="http://www.w3.org/1999/xlink" width="334.8655pt" height="275.858171pt" viewBox="0 0 334.8655 275.858171" xmlns="http://www.w3.org/2000/svg" version="1.1">
 <metadata>
  <rdf:RDF xmlns:dc="http://purl.org/dc/elements/1.1/" xmlns:cc="http://creativecommons.org/ns#" xmlns:rdf="http://www.w3.org/1999/02/22-rdf-syntax-ns#">
   <cc:Work>
    <dc:type rdf:resource="http://purl.org/dc/dcmitype/StillImage"/>
    <dc:date>2024-04-28T21:44:18.724620</dc:date>
    <dc:format>image/svg+xml</dc:format>
    <dc:creator>
     <cc:Agent>
      <dc:title>Matplotlib v3.7.2, https://matplotlib.org/</dc:title>
     </cc:Agent>
    </dc:creator>
   </cc:Work>
  </rdf:RDF>
 </metadata>
 <defs>
  <style type="text/css">*{stroke-linejoin: round; stroke-linecap: butt}</style>
 </defs>
 <g id="figure_1">
  <g id="patch_1">
   <path d="M 0 275.858171 
L 334.8655 275.858171 
L 334.8655 0 
L 0 0 
z
" style="fill: #ffffff"/>
  </g>
  <g id="axes_1">
   <g id="patch_2">
    <path d="M 48.6655 230.575733 
L 327.6655 230.575733 
L 327.6655 8.815733 
L 48.6655 8.815733 
z
" style="fill: #ffffff"/>
   </g>
   <g id="matplotlib.axis_1">
    <g id="xtick_1">
     <g id="text_1">
      <!-- 0.0 -->
      <g style="fill: #262626" transform="translate(67.818781 248.434015) scale(0.11 -0.11)">
       <defs>
        <path id="DejaVuSans-30" d="M 2034 4250 
Q 1547 4250 1301 3770 
Q 1056 3291 1056 2328 
Q 1056 1369 1301 889 
Q 1547 409 2034 409 
Q 2525 409 2770 889 
Q 3016 1369 3016 2328 
Q 3016 3291 2770 3770 
Q 2525 4250 2034 4250 
z
M 2034 4750 
Q 2819 4750 3233 4129 
Q 3647 3509 3647 2328 
Q 3647 1150 3233 529 
Q 2819 -91 2034 -91 
Q 1250 -91 836 529 
Q 422 1150 422 2328 
Q 422 3509 836 4129 
Q 1250 4750 2034 4750 
z
" transform="scale(0.015625)"/>
        <path id="DejaVuSans-2e" d="M 684 794 
L 1344 794 
L 1344 0 
L 684 0 
L 684 794 
z
" transform="scale(0.015625)"/>
       </defs>
       <use xlink:href="#DejaVuSans-30"/>
       <use xlink:href="#DejaVuSans-2e" x="63.623047"/>
       <use xlink:href="#DejaVuSans-30" x="95.410156"/>
      </g>
     </g>
    </g>
    <g id="xtick_2">
     <g id="text_2">
      <!-- 0.05 -->
      <g style="fill: #262626" transform="translate(120.119406 248.434015) scale(0.11 -0.11)">
       <defs>
        <path id="DejaVuSans-35" d="M 691 4666 
L 3169 4666 
L 3169 4134 
L 1269 4134 
L 1269 2991 
Q 1406 3038 1543 3061 
Q 1681 3084 1819 3084 
Q 2600 3084 3056 2656 
Q 3513 2228 3513 1497 
Q 3513 744 3044 326 
Q 2575 -91 1722 -91 
Q 1428 -91 1123 -41 
Q 819 9 494 109 
L 494 744 
Q 775 591 1075 516 
Q 1375 441 1709 441 
Q 2250 441 2565 725 
Q 2881 1009 2881 1497 
Q 2881 1984 2565 2268 
Q 2250 2553 1709 2553 
Q 1456 2553 1204 2497 
Q 953 2441 691 2322 
L 691 4666 
z
" transform="scale(0.015625)"/>
       </defs>
       <use xlink:href="#DejaVuSans-30"/>
       <use xlink:href="#DejaVuSans-2e" x="63.623047"/>
       <use xlink:href="#DejaVuSans-30" x="95.410156"/>
       <use xlink:href="#DejaVuSans-35" x="159.033203"/>
      </g>
     </g>
    </g>
    <g id="xtick_3">
     <g id="text_3">
      <!-- 0.1 -->
      <g style="fill: #262626" transform="translate(179.418781 248.434015) scale(0.11 -0.11)">
       <defs>
        <path id="DejaVuSans-31" d="M 794 531 
L 1825 531 
L 1825 4091 
L 703 3866 
L 703 4441 
L 1819 4666 
L 2450 4666 
L 2450 531 
L 3481 531 
L 3481 0 
L 794 0 
L 794 531 
z
" transform="scale(0.015625)"/>
       </defs>
       <use xlink:href="#DejaVuSans-30"/>
       <use xlink:href="#DejaVuSans-2e" x="63.623047"/>
       <use xlink:href="#DejaVuSans-31" x="95.410156"/>
      </g>
     </g>
    </g>
    <g id="xtick_4">
     <g id="text_4">
      <!-- 0.2 -->
      <g style="fill: #262626" transform="translate(235.218781 248.434015) scale(0.11 -0.11)">
       <defs>
        <path id="DejaVuSans-32" d="M 1228 531 
L 3431 531 
L 3431 0 
L 469 0 
L 469 531 
Q 828 903 1448 1529 
Q 2069 2156 2228 2338 
Q 2531 2678 2651 2914 
Q 2772 3150 2772 3378 
Q 2772 3750 2511 3984 
Q 2250 4219 1831 4219 
Q 1534 4219 1204 4116 
Q 875 4013 500 3803 
L 500 4441 
Q 881 4594 1212 4672 
Q 1544 4750 1819 4750 
Q 2544 4750 2975 4387 
Q 3406 4025 3406 3419 
Q 3406 3131 3298 2873 
Q 3191 2616 2906 2266 
Q 2828 2175 2409 1742 
Q 1991 1309 1228 531 
z
" transform="scale(0.015625)"/>
       </defs>
       <use xlink:href="#DejaVuSans-30"/>
       <use xlink:href="#DejaVuSans-2e" x="63.623047"/>
       <use xlink:href="#DejaVuSans-32" x="95.410156"/>
      </g>
     </g>
    </g>
    <g id="xtick_5">
     <g id="text_5">
      <!-- 0.3 -->
      <g style="fill: #262626" transform="translate(291.018781 248.434015) scale(0.11 -0.11)">
       <defs>
        <path id="DejaVuSans-33" d="M 2597 2516 
Q 3050 2419 3304 2112 
Q 3559 1806 3559 1356 
Q 3559 666 3084 287 
Q 2609 -91 1734 -91 
Q 1441 -91 1130 -33 
Q 819 25 488 141 
L 488 750 
Q 750 597 1062 519 
Q 1375 441 1716 441 
Q 2309 441 2620 675 
Q 2931 909 2931 1356 
Q 2931 1769 2642 2001 
Q 2353 2234 1838 2234 
L 1294 2234 
L 1294 2753 
L 1863 2753 
Q 2328 2753 2575 2939 
Q 2822 3125 2822 3475 
Q 2822 3834 2567 4026 
Q 2313 4219 1838 4219 
Q 1578 4219 1281 4162 
Q 984 4106 628 3988 
L 628 4550 
Q 988 4650 1302 4700 
Q 1616 4750 1894 4750 
Q 2613 4750 3031 4423 
Q 3450 4097 3450 3541 
Q 3450 3153 3228 2886 
Q 3006 2619 2597 2516 
z
" transform="scale(0.015625)"/>
       </defs>
       <use xlink:href="#DejaVuSans-30"/>
       <use xlink:href="#DejaVuSans-2e" x="63.623047"/>
       <use xlink:href="#DejaVuSans-33" x="95.410156"/>
      </g>
     </g>
    </g>
    <g id="text_6">
     <!-- $\sigma$ -->
     <g style="fill: #262626" transform="translate(183.5575 265.663421) scale(0.144 -0.144)">
      <defs>
       <path id="DejaVuSans-Oblique-3c3" d="M 2219 3044 
Q 1744 3044 1422 2700 
Q 1081 2341 969 1747 
Q 844 1119 1044 756 
Q 1241 397 1706 397 
Q 2166 397 2503 759 
Q 2844 1122 2966 1747 
Q 3075 2319 2881 2700 
Q 2700 3044 2219 3044 
z
M 2309 3503 
L 4219 3500 
L 4106 2925 
L 3463 2925 
Q 3706 2438 3575 1747 
Q 3406 888 2884 400 
Q 2359 -91 1609 -91 
Q 856 -91 525 400 
Q 194 888 363 1747 
Q 528 2609 1050 3097 
Q 1484 3503 2309 3503 
z
" transform="scale(0.015625)"/>
      </defs>
      <use xlink:href="#DejaVuSans-Oblique-3c3" transform="translate(0 0.265625)"/>
     </g>
    </g>
   </g>
   <g id="matplotlib.axis_2">
    <g id="ytick_1">
     <g id="line2d_1">
      <path d="M 48.6655 218.081925 
L 327.6655 218.081925 
" clip-path="url(#p1fe49206c6)" style="fill: none; stroke: #cccccc; stroke-linecap: round"/>
     </g>
     <g id="text_7">
      <!-- 0 -->
      <g style="fill: #262626" transform="translate(32.16675 222.261066) scale(0.11 -0.11)">
       <use xlink:href="#DejaVuSans-30"/>
      </g>
     </g>
    </g>
    <g id="ytick_2">
     <g id="line2d_2">
      <path d="M 48.6655 176.741368 
L 327.6655 176.741368 
" clip-path="url(#p1fe49206c6)" style="fill: none; stroke: #cccccc; stroke-linecap: round"/>
     </g>
     <g id="text_8">
      <!-- 10 -->
      <g style="fill: #262626" transform="translate(25.168 180.920509) scale(0.11 -0.11)">
       <use xlink:href="#DejaVuSans-31"/>
       <use xlink:href="#DejaVuSans-30" x="63.623047"/>
      </g>
     </g>
    </g>
    <g id="ytick_3">
     <g id="line2d_3">
      <path d="M 48.6655 135.400811 
L 327.6655 135.400811 
" clip-path="url(#p1fe49206c6)" style="fill: none; stroke: #cccccc; stroke-linecap: round"/>
     </g>
     <g id="text_9">
      <!-- 20 -->
      <g style="fill: #262626" transform="translate(25.168 139.579952) scale(0.11 -0.11)">
       <use xlink:href="#DejaVuSans-32"/>
       <use xlink:href="#DejaVuSans-30" x="63.623047"/>
      </g>
     </g>
    </g>
    <g id="ytick_4">
     <g id="line2d_4">
      <path d="M 48.6655 94.060254 
L 327.6655 94.060254 
" clip-path="url(#p1fe49206c6)" style="fill: none; stroke: #cccccc; stroke-linecap: round"/>
     </g>
     <g id="text_10">
      <!-- 30 -->
      <g style="fill: #262626" transform="translate(25.168 98.239395) scale(0.11 -0.11)">
       <use xlink:href="#DejaVuSans-33"/>
       <use xlink:href="#DejaVuSans-30" x="63.623047"/>
      </g>
     </g>
    </g>
    <g id="ytick_5">
     <g id="line2d_5">
      <path d="M 48.6655 52.719697 
L 327.6655 52.719697 
" clip-path="url(#p1fe49206c6)" style="fill: none; stroke: #cccccc; stroke-linecap: round"/>
     </g>
     <g id="text_11">
      <!-- 40 -->
      <g style="fill: #262626" transform="translate(25.168 56.898838) scale(0.11 -0.11)">
       <defs>
        <path id="DejaVuSans-34" d="M 2419 4116 
L 825 1625 
L 2419 1625 
L 2419 4116 
z
M 2253 4666 
L 3047 4666 
L 3047 1625 
L 3713 1625 
L 3713 1100 
L 3047 1100 
L 3047 0 
L 2419 0 
L 2419 1100 
L 313 1100 
L 313 1709 
L 2253 4666 
z
" transform="scale(0.015625)"/>
       </defs>
       <use xlink:href="#DejaVuSans-34"/>
       <use xlink:href="#DejaVuSans-30" x="63.623047"/>
      </g>
     </g>
    </g>
    <g id="ytick_6">
     <g id="line2d_6">
      <path d="M 48.6655 11.379141 
L 327.6655 11.379141 
" clip-path="url(#p1fe49206c6)" style="fill: none; stroke: #cccccc; stroke-linecap: round"/>
     </g>
     <g id="text_12">
      <!-- 50 -->
      <g style="fill: #262626" transform="translate(25.168 15.558281) scale(0.11 -0.11)">
       <use xlink:href="#DejaVuSans-35"/>
       <use xlink:href="#DejaVuSans-30" x="63.623047"/>
      </g>
     </g>
    </g>
    <g id="text_13">
     <!-- Learned prior, $R_\theta$ -->
     <g style="fill: #262626" transform="translate(18.144 181.183733) rotate(-90) scale(0.144 -0.144)">
      <defs>
       <path id="DejaVuSans-4c" d="M 628 4666 
L 1259 4666 
L 1259 531 
L 3531 531 
L 3531 0 
L 628 0 
L 628 4666 
z
" transform="scale(0.015625)"/>
       <path id="DejaVuSans-65" d="M 3597 1894 
L 3597 1613 
L 953 1613 
Q 991 1019 1311 708 
Q 1631 397 2203 397 
Q 2534 397 2845 478 
Q 3156 559 3463 722 
L 3463 178 
Q 3153 47 2828 -22 
Q 2503 -91 2169 -91 
Q 1331 -91 842 396 
Q 353 884 353 1716 
Q 353 2575 817 3079 
Q 1281 3584 2069 3584 
Q 2775 3584 3186 3129 
Q 3597 2675 3597 1894 
z
M 3022 2063 
Q 3016 2534 2758 2815 
Q 2500 3097 2075 3097 
Q 1594 3097 1305 2825 
Q 1016 2553 972 2059 
L 3022 2063 
z
" transform="scale(0.015625)"/>
       <path id="DejaVuSans-61" d="M 2194 1759 
Q 1497 1759 1228 1600 
Q 959 1441 959 1056 
Q 959 750 1161 570 
Q 1363 391 1709 391 
Q 2188 391 2477 730 
Q 2766 1069 2766 1631 
L 2766 1759 
L 2194 1759 
z
M 3341 1997 
L 3341 0 
L 2766 0 
L 2766 531 
Q 2569 213 2275 61 
Q 1981 -91 1556 -91 
Q 1019 -91 701 211 
Q 384 513 384 1019 
Q 384 1609 779 1909 
Q 1175 2209 1959 2209 
L 2766 2209 
L 2766 2266 
Q 2766 2663 2505 2880 
Q 2244 3097 1772 3097 
Q 1472 3097 1187 3025 
Q 903 2953 641 2809 
L 641 3341 
Q 956 3463 1253 3523 
Q 1550 3584 1831 3584 
Q 2591 3584 2966 3190 
Q 3341 2797 3341 1997 
z
" transform="scale(0.015625)"/>
       <path id="DejaVuSans-72" d="M 2631 2963 
Q 2534 3019 2420 3045 
Q 2306 3072 2169 3072 
Q 1681 3072 1420 2755 
Q 1159 2438 1159 1844 
L 1159 0 
L 581 0 
L 581 3500 
L 1159 3500 
L 1159 2956 
Q 1341 3275 1631 3429 
Q 1922 3584 2338 3584 
Q 2397 3584 2469 3576 
Q 2541 3569 2628 3553 
L 2631 2963 
z
" transform="scale(0.015625)"/>
       <path id="DejaVuSans-6e" d="M 3513 2113 
L 3513 0 
L 2938 0 
L 2938 2094 
Q 2938 2591 2744 2837 
Q 2550 3084 2163 3084 
Q 1697 3084 1428 2787 
Q 1159 2491 1159 1978 
L 1159 0 
L 581 0 
L 581 3500 
L 1159 3500 
L 1159 2956 
Q 1366 3272 1645 3428 
Q 1925 3584 2291 3584 
Q 2894 3584 3203 3211 
Q 3513 2838 3513 2113 
z
" transform="scale(0.015625)"/>
       <path id="DejaVuSans-64" d="M 2906 2969 
L 2906 4863 
L 3481 4863 
L 3481 0 
L 2906 0 
L 2906 525 
Q 2725 213 2448 61 
Q 2172 -91 1784 -91 
Q 1150 -91 751 415 
Q 353 922 353 1747 
Q 353 2572 751 3078 
Q 1150 3584 1784 3584 
Q 2172 3584 2448 3432 
Q 2725 3281 2906 2969 
z
M 947 1747 
Q 947 1113 1208 752 
Q 1469 391 1925 391 
Q 2381 391 2643 752 
Q 2906 1113 2906 1747 
Q 2906 2381 2643 2742 
Q 2381 3103 1925 3103 
Q 1469 3103 1208 2742 
Q 947 2381 947 1747 
z
" transform="scale(0.015625)"/>
       <path id="DejaVuSans-20" transform="scale(0.015625)"/>
       <path id="DejaVuSans-70" d="M 1159 525 
L 1159 -1331 
L 581 -1331 
L 581 3500 
L 1159 3500 
L 1159 2969 
Q 1341 3281 1617 3432 
Q 1894 3584 2278 3584 
Q 2916 3584 3314 3078 
Q 3713 2572 3713 1747 
Q 3713 922 3314 415 
Q 2916 -91 2278 -91 
Q 1894 -91 1617 61 
Q 1341 213 1159 525 
z
M 3116 1747 
Q 3116 2381 2855 2742 
Q 2594 3103 2138 3103 
Q 1681 3103 1420 2742 
Q 1159 2381 1159 1747 
Q 1159 1113 1420 752 
Q 1681 391 2138 391 
Q 2594 391 2855 752 
Q 3116 1113 3116 1747 
z
" transform="scale(0.015625)"/>
       <path id="DejaVuSans-69" d="M 603 3500 
L 1178 3500 
L 1178 0 
L 603 0 
L 603 3500 
z
M 603 4863 
L 1178 4863 
L 1178 4134 
L 603 4134 
L 603 4863 
z
" transform="scale(0.015625)"/>
       <path id="DejaVuSans-6f" d="M 1959 3097 
Q 1497 3097 1228 2736 
Q 959 2375 959 1747 
Q 959 1119 1226 758 
Q 1494 397 1959 397 
Q 2419 397 2687 759 
Q 2956 1122 2956 1747 
Q 2956 2369 2687 2733 
Q 2419 3097 1959 3097 
z
M 1959 3584 
Q 2709 3584 3137 3096 
Q 3566 2609 3566 1747 
Q 3566 888 3137 398 
Q 2709 -91 1959 -91 
Q 1206 -91 779 398 
Q 353 888 353 1747 
Q 353 2609 779 3096 
Q 1206 3584 1959 3584 
z
" transform="scale(0.015625)"/>
       <path id="DejaVuSans-2c" d="M 750 794 
L 1409 794 
L 1409 256 
L 897 -744 
L 494 -744 
L 750 256 
L 750 794 
z
" transform="scale(0.015625)"/>
       <path id="DejaVuSans-Oblique-52" d="M 1613 4147 
L 1294 2491 
L 2106 2491 
Q 2584 2491 2879 2755 
Q 3175 3019 3175 3444 
Q 3175 3784 2976 3965 
Q 2778 4147 2406 4147 
L 1613 4147 
z
M 2772 2241 
Q 2972 2194 3105 2009 
Q 3238 1825 3413 1275 
L 3809 0 
L 3144 0 
L 2778 1197 
Q 2638 1659 2453 1815 
Q 2269 1972 1888 1972 
L 1191 1972 
L 806 0 
L 172 0 
L 1081 4666 
L 2503 4666 
Q 3150 4666 3495 4373 
Q 3841 4081 3841 3531 
Q 3841 3044 3547 2687 
Q 3253 2331 2772 2241 
z
" transform="scale(0.015625)"/>
       <path id="DejaVuSans-Oblique-3b8" d="M 2913 2219 
L 925 2219 
Q 791 1284 928 888 
Q 1100 400 1566 400 
Q 2034 400 2391 891 
Q 2703 1322 2913 2219 
z
M 3009 2750 
Q 3094 3638 2984 3950 
Q 2813 4444 2353 4444 
Q 1875 4444 1525 3956 
Q 1250 3563 1034 2750 
L 3009 2750 
z
M 2444 4913 
Q 3194 4913 3494 4250 
Q 3794 3591 3566 2422 
Q 3341 1256 2781 594 
Q 2225 -72 1475 -72 
Q 722 -72 425 594 
Q 128 1256 353 2422 
Q 581 3591 1134 4250 
Q 1691 4913 2444 4913 
z
" transform="scale(0.015625)"/>
      </defs>
      <use xlink:href="#DejaVuSans-4c" transform="translate(0 0.015625)"/>
      <use xlink:href="#DejaVuSans-65" transform="translate(55.712891 0.015625)"/>
      <use xlink:href="#DejaVuSans-61" transform="translate(117.236328 0.015625)"/>
      <use xlink:href="#DejaVuSans-72" transform="translate(178.515625 0.015625)"/>
      <use xlink:href="#DejaVuSans-6e" transform="translate(219.628906 0.015625)"/>
      <use xlink:href="#DejaVuSans-65" transform="translate(283.007812 0.015625)"/>
      <use xlink:href="#DejaVuSans-64" transform="translate(344.53125 0.015625)"/>
      <use xlink:href="#DejaVuSans-20" transform="translate(408.007812 0.015625)"/>
      <use xlink:href="#DejaVuSans-70" transform="translate(439.794922 0.015625)"/>
      <use xlink:href="#DejaVuSans-72" transform="translate(503.271484 0.015625)"/>
      <use xlink:href="#DejaVuSans-69" transform="translate(544.384766 0.015625)"/>
      <use xlink:href="#DejaVuSans-6f" transform="translate(572.167969 0.015625)"/>
      <use xlink:href="#DejaVuSans-72" transform="translate(633.349609 0.015625)"/>
      <use xlink:href="#DejaVuSans-2c" transform="translate(674.462891 0.015625)"/>
      <use xlink:href="#DejaVuSans-20" transform="translate(706.25 0.015625)"/>
      <use xlink:href="#DejaVuSans-Oblique-52" transform="translate(738.037109 0.015625)"/>
      <use xlink:href="#DejaVuSans-Oblique-3b8" transform="translate(807.519531 -16.390625) scale(0.7)"/>
     </g>
    </g>
   </g>
   <g id="PolyCollection_1">
    <defs>
     <path id="m4157c466ab" d="M 76.825464 -55.362437 
L 76.305536 -55.362437 
L 76.199618 -55.554454 
L 76.062403 -55.74647 
L 75.889564 -55.938486 
L 75.678009 -56.130502 
L 75.426567 -56.322518 
L 75.136655 -56.514534 
L 74.812781 -56.70655 
L 74.462791 -56.898566 
L 74.097738 -57.090582 
L 73.731344 -57.282598 
L 73.379017 -57.474615 
L 73.056525 -57.666631 
L 72.778446 -57.858647 
L 72.556586 -58.050663 
L 72.39858 -58.242679 
L 72.306875 -58.434695 
L 72.278257 -58.626711 
L 72.304002 -58.818727 
L 72.37065 -59.010743 
L 72.46129 -59.202759 
L 72.557192 -59.394776 
L 72.639553 -59.586792 
L 72.691111 -59.778808 
L 72.697429 -59.970824 
L 72.647675 -60.16284 
L 72.534842 -60.354856 
L 72.355426 -60.546872 
L 72.108686 -60.738888 
L 71.795659 -60.930904 
L 71.418153 -61.12292 
L 70.97793 -61.314937 
L 70.476246 -61.506953 
L 69.913838 -61.698969 
L 69.291355 -61.890985 
L 68.610143 -62.083001 
L 67.873199 -62.275017 
L 67.086074 -62.467033 
L 66.257505 -62.659049 
L 65.399596 -62.851065 
L 64.527431 -63.043081 
L 63.658145 -63.235098 
L 62.809554 -63.427114 
L 61.998589 -63.61913 
L 61.239793 -63.811146 
L 60.544192 -64.003162 
L 59.918767 -64.195178 
L 59.366664 -64.387194 
L 58.888136 -64.57921 
L 58.482048 -64.771226 
L 58.147642 -64.963242 
L 57.886209 -65.155258 
L 57.702267 -65.347275 
L 57.603958 -65.539291 
L 57.602494 -65.731307 
L 57.710687 -65.923323 
L 57.940777 -66.115339 
L 58.301947 -66.307355 
L 58.797973 -66.499371 
L 59.425488 -66.691387 
L 60.173203 -66.883403 
L 61.022283 -67.075419 
L 61.947842 -67.267436 
L 62.921322 -67.459452 
L 63.913361 -67.651468 
L 64.896666 -67.843484 
L 65.848437 -68.0355 
L 66.751991 -68.227516 
L 67.597386 -68.419532 
L 68.381061 -68.611548 
L 69.104661 -68.803564 
L 69.773349 -68.99558 
L 70.39396 -69.187597 
L 70.973318 -69.379613 
L 71.516984 -69.571629 
L 72.02855 -69.763645 
L 72.509504 -69.955661 
L 72.959565 -70.147677 
L 73.377328 -70.339693 
L 73.761031 -70.531709 
L 74.109274 -70.723725 
L 74.421553 -70.915741 
L 74.698547 -71.107758 
L 74.942146 -71.299774 
L 75.155256 -71.49179 
L 75.341451 -71.683806 
L 75.504568 -71.875822 
L 75.648311 -72.067838 
L 75.775939 -72.259854 
L 75.890065 -72.45187 
L 75.992592 -72.643886 
L 76.084762 -72.835902 
L 76.167282 -73.027919 
L 76.240512 -73.219935 
L 76.30465 -73.411951 
L 76.35989 -73.603967 
L 76.406544 -73.795983 
L 76.4451 -73.987999 
L 76.476227 -74.180015 
L 76.50075 -74.372031 
L 76.63025 -74.372031 
L 76.63025 -74.372031 
L 76.654773 -74.180015 
L 76.6859 -73.987999 
L 76.724456 -73.795983 
L 76.77111 -73.603967 
L 76.82635 -73.411951 
L 76.890488 -73.219935 
L 76.963718 -73.027919 
L 77.046238 -72.835902 
L 77.138408 -72.643886 
L 77.240935 -72.45187 
L 77.355061 -72.259854 
L 77.482689 -72.067838 
L 77.626432 -71.875822 
L 77.789549 -71.683806 
L 77.975744 -71.49179 
L 78.188854 -71.299774 
L 78.432453 -71.107758 
L 78.709447 -70.915741 
L 79.021726 -70.723725 
L 79.369969 -70.531709 
L 79.753672 -70.339693 
L 80.171435 -70.147677 
L 80.621496 -69.955661 
L 81.10245 -69.763645 
L 81.614016 -69.571629 
L 82.157682 -69.379613 
L 82.73704 -69.187597 
L 83.357651 -68.99558 
L 84.026339 -68.803564 
L 84.749939 -68.611548 
L 85.533614 -68.419532 
L 86.379009 -68.227516 
L 87.282563 -68.0355 
L 88.234334 -67.843484 
L 89.217639 -67.651468 
L 90.209678 -67.459452 
L 91.183158 -67.267436 
L 92.108717 -67.075419 
L 92.957797 -66.883403 
L 93.705512 -66.691387 
L 94.333027 -66.499371 
L 94.829053 -66.307355 
L 95.190223 -66.115339 
L 95.420313 -65.923323 
L 95.528506 -65.731307 
L 95.527042 -65.539291 
L 95.428733 -65.347275 
L 95.244791 -65.155258 
L 94.983358 -64.963242 
L 94.648952 -64.771226 
L 94.242864 -64.57921 
L 93.764336 -64.387194 
L 93.212233 -64.195178 
L 92.586808 -64.003162 
L 91.891207 -63.811146 
L 91.132411 -63.61913 
L 90.321446 -63.427114 
L 89.472855 -63.235098 
L 88.603569 -63.043081 
L 87.731404 -62.851065 
L 86.873495 -62.659049 
L 86.044926 -62.467033 
L 85.257801 -62.275017 
L 84.520857 -62.083001 
L 83.839645 -61.890985 
L 83.217162 -61.698969 
L 82.654754 -61.506953 
L 82.15307 -61.314937 
L 81.712847 -61.12292 
L 81.335341 -60.930904 
L 81.022314 -60.738888 
L 80.775574 -60.546872 
L 80.596158 -60.354856 
L 80.483325 -60.16284 
L 80.433571 -59.970824 
L 80.439889 -59.778808 
L 80.491447 -59.586792 
L 80.573808 -59.394776 
L 80.66971 -59.202759 
L 80.76035 -59.010743 
L 80.826998 -58.818727 
L 80.852743 -58.626711 
L 80.824125 -58.434695 
L 80.73242 -58.242679 
L 80.574414 -58.050663 
L 80.352554 -57.858647 
L 80.074475 -57.666631 
L 79.751983 -57.474615 
L 79.399656 -57.282598 
L 79.033262 -57.090582 
L 78.668209 -56.898566 
L 78.318219 -56.70655 
L 77.994345 -56.514534 
L 77.704433 -56.322518 
L 77.452991 -56.130502 
L 77.241436 -55.938486 
L 77.068597 -55.74647 
L 76.931382 -55.554454 
L 76.825464 -55.362437 
z
" style="stroke: #4c4c4c; stroke-width: 1.5"/>
    </defs>
    <g clip-path="url(#p1fe49206c6)">
     <use xlink:href="#m4157c466ab" x="0" y="275.858171" style="fill: #5875a4; stroke: #4c4c4c; stroke-width: 1.5"/>
    </g>
   </g>
   <g id="PolyCollection_2">
    <defs>
     <path id="m911a933b8f" d="M 132.45295 -71.033005 
L 132.27805 -71.033005 
L 132.239878 -71.207096 
L 132.188948 -71.381187 
L 132.122515 -71.555278 
L 132.037703 -71.72937 
L 131.931614 -71.903461 
L 131.801452 -72.077552 
L 131.644666 -72.251643 
L 131.459124 -72.425735 
L 131.243315 -72.599826 
L 130.996582 -72.773917 
L 130.719387 -72.948008 
L 130.41356 -73.1221 
L 130.082512 -73.296191 
L 129.731341 -73.470282 
L 129.36678 -73.644373 
L 128.996965 -73.818465 
L 128.630992 -73.992556 
L 128.278319 -74.166647 
L 127.94807 -74.340738 
L 127.648337 -74.51483 
L 127.385556 -74.688921 
L 127.164032 -74.863012 
L 126.985636 -75.037103 
L 126.84966 -75.211194 
L 126.752785 -75.385286 
L 126.689115 -75.559377 
L 126.650227 -75.733468 
L 126.625228 -75.907559 
L 126.60084 -76.081651 
L 126.561577 -76.255742 
L 126.490051 -76.429833 
L 126.367507 -76.603924 
L 126.174597 -76.778016 
L 125.892427 -76.952107 
L 125.503835 -77.126198 
L 124.994849 -77.300289 
L 124.356207 -77.474381 
L 123.584803 -77.648472 
L 122.684875 -77.822563 
L 121.668721 -77.996654 
L 120.556749 -78.170746 
L 119.3767 -78.344837 
L 118.161969 -78.518928 
L 116.949123 -78.693019 
L 115.774843 -78.867111 
L 114.672696 -79.041202 
L 113.670234 -79.215293 
L 112.786904 -79.389384 
L 112.033168 -79.563476 
L 111.411018 -79.737567 
L 110.915806 -79.911658 
L 110.539071 -80.085749 
L 110.271838 -80.25984 
L 110.107757 -80.433932 
L 110.0455 -80.608023 
L 110.08992 -80.782114 
L 110.251755 -80.956205 
L 110.545862 -81.130297 
L 110.988282 -81.304388 
L 111.592607 -81.478479 
L 112.366315 -81.65257 
L 113.307716 -81.826662 
L 114.404096 -82.000753 
L 115.631447 -82.174844 
L 116.955867 -82.348935 
L 118.336421 -82.523027 
L 119.729025 -82.697118 
L 121.090675 -82.871209 
L 122.383378 -83.0453 
L 123.577209 -83.219392 
L 124.652098 -83.393483 
L 125.59826 -83.567574 
L 126.415368 -83.741665 
L 127.110797 -83.915757 
L 127.697346 -84.089848 
L 128.190857 -84.263939 
L 128.608068 -84.43803 
L 128.964948 -84.612122 
L 129.275579 -84.786213 
L 129.551602 -84.960304 
L 129.802104 -85.134395 
L 130.033807 -85.308486 
L 130.251425 -85.482578 
L 130.458061 -85.656669 
L 130.655566 -85.83076 
L 130.844822 -86.004851 
L 131.025961 -86.178943 
L 131.198529 -86.353034 
L 131.361631 -86.527125 
L 131.514092 -86.701216 
L 131.654629 -86.875308 
L 131.782037 -87.049399 
L 131.895366 -87.22349 
L 131.994071 -87.397581 
L 132.0781 -87.571673 
L 132.147922 -87.745764 
L 132.204484 -87.919855 
L 132.249112 -88.093946 
L 132.283384 -88.268038 
L 132.447616 -88.268038 
L 132.447616 -88.268038 
L 132.481888 -88.093946 
L 132.526516 -87.919855 
L 132.583078 -87.745764 
L 132.6529 -87.571673 
L 132.736929 -87.397581 
L 132.835634 -87.22349 
L 132.948963 -87.049399 
L 133.076371 -86.875308 
L 133.216908 -86.701216 
L 133.369369 -86.527125 
L 133.532471 -86.353034 
L 133.705039 -86.178943 
L 133.886178 -86.004851 
L 134.075434 -85.83076 
L 134.272939 -85.656669 
L 134.479575 -85.482578 
L 134.697193 -85.308486 
L 134.928896 -85.134395 
L 135.179398 -84.960304 
L 135.455421 -84.786213 
L 135.766052 -84.612122 
L 136.122932 -84.43803 
L 136.540143 -84.263939 
L 137.033654 -84.089848 
L 137.620203 -83.915757 
L 138.315632 -83.741665 
L 139.13274 -83.567574 
L 140.078902 -83.393483 
L 141.153791 -83.219392 
L 142.347622 -83.0453 
L 143.640325 -82.871209 
L 145.001975 -82.697118 
L 146.394579 -82.523027 
L 147.775133 -82.348935 
L 149.099553 -82.174844 
L 150.326904 -82.000753 
L 151.423284 -81.826662 
L 152.364685 -81.65257 
L 153.138393 -81.478479 
L 153.742718 -81.304388 
L 154.185138 -81.130297 
L 154.479245 -80.956205 
L 154.64108 -80.782114 
L 154.6855 -80.608023 
L 154.623243 -80.433932 
L 154.459162 -80.25984 
L 154.191929 -80.085749 
L 153.815194 -79.911658 
L 153.319982 -79.737567 
L 152.697832 -79.563476 
L 151.944096 -79.389384 
L 151.060766 -79.215293 
L 150.058304 -79.041202 
L 148.956157 -78.867111 
L 147.781877 -78.693019 
L 146.569031 -78.518928 
L 145.3543 -78.344837 
L 144.174251 -78.170746 
L 143.062279 -77.996654 
L 142.046125 -77.822563 
L 141.146197 -77.648472 
L 140.374793 -77.474381 
L 139.736151 -77.300289 
L 139.227165 -77.126198 
L 138.838573 -76.952107 
L 138.556403 -76.778016 
L 138.363493 -76.603924 
L 138.240949 -76.429833 
L 138.169423 -76.255742 
L 138.13016 -76.081651 
L 138.105772 -75.907559 
L 138.080773 -75.733468 
L 138.041885 -75.559377 
L 137.978215 -75.385286 
L 137.88134 -75.211194 
L 137.745364 -75.037103 
L 137.566968 -74.863012 
L 137.345444 -74.688921 
L 137.082663 -74.51483 
L 136.78293 -74.340738 
L 136.452681 -74.166647 
L 136.100008 -73.992556 
L 135.734035 -73.818465 
L 135.36422 -73.644373 
L 134.999659 -73.470282 
L 134.648488 -73.296191 
L 134.31744 -73.1221 
L 134.011613 -72.948008 
L 133.734418 -72.773917 
L 133.487685 -72.599826 
L 133.271876 -72.425735 
L 133.086334 -72.251643 
L 132.929548 -72.077552 
L 132.799386 -71.903461 
L 132.693297 -71.72937 
L 132.608485 -71.555278 
L 132.542052 -71.381187 
L 132.491122 -71.207096 
L 132.45295 -71.033005 
z
" style="stroke: #4c4c4c; stroke-width: 1.5"/>
    </defs>
    <g clip-path="url(#p1fe49206c6)">
     <use xlink:href="#m911a933b8f" x="0" y="275.858171" style="fill: #cc8963; stroke: #4c4c4c; stroke-width: 1.5"/>
    </g>
   </g>
   <g id="PolyCollection_3">
    <defs>
     <path id="mdc7e198683" d="M 188.229048 -87.123342 
L 188.101952 -87.123342 
L 188.07452 -87.337823 
L 188.039313 -87.552304 
L 187.995822 -87.766786 
L 187.944099 -87.981267 
L 187.884824 -88.195748 
L 187.819265 -88.410229 
L 187.749099 -88.62471 
L 187.676108 -88.839191 
L 187.601824 -89.053672 
L 187.527186 -89.268153 
L 187.452309 -89.482634 
L 187.376409 -89.697115 
L 187.2979 -89.911596 
L 187.214604 -90.126077 
L 187.123973 -90.340558 
L 187.023222 -90.555039 
L 186.909297 -90.76952 
L 186.778671 -90.984001 
L 186.627063 -91.198483 
L 186.449235 -91.412964 
L 186.23902 -91.627445 
L 185.989724 -91.841926 
L 185.694893 -92.056407 
L 185.349333 -92.270888 
L 184.950119 -92.485369 
L 184.497297 -92.69985 
L 183.994 -92.914331 
L 183.445854 -93.128812 
L 182.859777 -93.343293 
L 182.24244 -93.557774 
L 181.598873 -93.772255 
L 180.931629 -93.986736 
L 180.240853 -94.201217 
L 179.525267 -94.415698 
L 178.783834 -94.63018 
L 178.017589 -94.844661 
L 177.231054 -95.059142 
L 176.432766 -95.273623 
L 175.634721 -95.488104 
L 174.850898 -95.702585 
L 174.09534 -95.917066 
L 173.38043 -96.131547 
L 172.715929 -96.346028 
L 172.109083 -96.560509 
L 171.565696 -96.77499 
L 171.091743 -96.989471 
L 170.694822 -97.203952 
L 170.384841 -97.418433 
L 170.17354 -97.632914 
L 170.072872 -97.847396 
L 170.09269 -98.061877 
L 170.238397 -98.276358 
L 170.509282 -98.490839 
L 170.898014 -98.70532 
L 171.39141 -98.919801 
L 171.972197 -99.134282 
L 172.621249 -99.348763 
L 173.319685 -99.563244 
L 174.050391 -99.777725 
L 174.798772 -99.992206 
L 175.552815 -100.206687 
L 176.302758 -100.421168 
L 177.040686 -100.635649 
L 177.760279 -100.85013 
L 178.456802 -101.064611 
L 179.127227 -101.279093 
L 179.770308 -101.493574 
L 180.386452 -101.708055 
L 180.977293 -101.922536 
L 181.545054 -102.137017 
L 182.091829 -102.351498 
L 182.618999 -102.565979 
L 183.126901 -102.78046 
L 183.614802 -102.994941 
L 184.081101 -103.209422 
L 184.523643 -103.423903 
L 184.940015 -103.638384 
L 185.327768 -103.852865 
L 185.684575 -104.067346 
L 186.008384 -104.281827 
L 186.297642 -104.496308 
L 186.551595 -104.71079 
L 186.770623 -104.925271 
L 186.956499 -105.139752 
L 187.11245 -105.354233 
L 187.242951 -105.568714 
L 187.353247 -105.783195 
L 187.448702 -105.997676 
L 187.53411 -106.212157 
L 187.61315 -106.426638 
L 187.688075 -106.641119 
L 187.759715 -106.8556 
L 187.827739 -107.070081 
L 187.891085 -107.284562 
L 187.948445 -107.499043 
L 187.99868 -107.713524 
L 188.041102 -107.928005 
L 188.07559 -108.142487 
L 188.102565 -108.356968 
L 188.228435 -108.356968 
L 188.228435 -108.356968 
L 188.25541 -108.142487 
L 188.289898 -107.928005 
L 188.33232 -107.713524 
L 188.382555 -107.499043 
L 188.439915 -107.284562 
L 188.503261 -107.070081 
L 188.571285 -106.8556 
L 188.642925 -106.641119 
L 188.71785 -106.426638 
L 188.79689 -106.212157 
L 188.882298 -105.997676 
L 188.977753 -105.783195 
L 189.088049 -105.568714 
L 189.21855 -105.354233 
L 189.374501 -105.139752 
L 189.560377 -104.925271 
L 189.779405 -104.71079 
L 190.033358 -104.496308 
L 190.322616 -104.281827 
L 190.646425 -104.067346 
L 191.003232 -103.852865 
L 191.390985 -103.638384 
L 191.807357 -103.423903 
L 192.249899 -103.209422 
L 192.716198 -102.994941 
L 193.204099 -102.78046 
L 193.712001 -102.565979 
L 194.239171 -102.351498 
L 194.785946 -102.137017 
L 195.353707 -101.922536 
L 195.944548 -101.708055 
L 196.560692 -101.493574 
L 197.203773 -101.279093 
L 197.874198 -101.064611 
L 198.570721 -100.85013 
L 199.290314 -100.635649 
L 200.028242 -100.421168 
L 200.778185 -100.206687 
L 201.532228 -99.992206 
L 202.280609 -99.777725 
L 203.011315 -99.563244 
L 203.709751 -99.348763 
L 204.358803 -99.134282 
L 204.93959 -98.919801 
L 205.432986 -98.70532 
L 205.821718 -98.490839 
L 206.092603 -98.276358 
L 206.23831 -98.061877 
L 206.258128 -97.847396 
L 206.15746 -97.632914 
L 205.946159 -97.418433 
L 205.636178 -97.203952 
L 205.239257 -96.989471 
L 204.765304 -96.77499 
L 204.221917 -96.560509 
L 203.615071 -96.346028 
L 202.95057 -96.131547 
L 202.23566 -95.917066 
L 201.480102 -95.702585 
L 200.696279 -95.488104 
L 199.898234 -95.273623 
L 199.099946 -95.059142 
L 198.313411 -94.844661 
L 197.547166 -94.63018 
L 196.805733 -94.415698 
L 196.090147 -94.201217 
L 195.399371 -93.986736 
L 194.732127 -93.772255 
L 194.08856 -93.557774 
L 193.471223 -93.343293 
L 192.885146 -93.128812 
L 192.337 -92.914331 
L 191.833703 -92.69985 
L 191.380881 -92.485369 
L 190.981667 -92.270888 
L 190.636107 -92.056407 
L 190.341276 -91.841926 
L 190.09198 -91.627445 
L 189.881765 -91.412964 
L 189.703937 -91.198483 
L 189.552329 -90.984001 
L 189.421703 -90.76952 
L 189.307778 -90.555039 
L 189.207027 -90.340558 
L 189.116396 -90.126077 
L 189.0331 -89.911596 
L 188.954591 -89.697115 
L 188.878691 -89.482634 
L 188.803814 -89.268153 
L 188.729176 -89.053672 
L 188.654892 -88.839191 
L 188.581901 -88.62471 
L 188.511735 -88.410229 
L 188.446176 -88.195748 
L 188.386901 -87.981267 
L 188.335178 -87.766786 
L 188.291687 -87.552304 
L 188.25648 -87.337823 
L 188.229048 -87.123342 
z
" style="stroke: #4c4c4c; stroke-width: 1.5"/>
    </defs>
    <g clip-path="url(#p1fe49206c6)">
     <use xlink:href="#mdc7e198683" x="0" y="275.858171" style="fill: #5f9e6e; stroke: #4c4c4c; stroke-width: 1.5"/>
    </g>
   </g>
   <g id="PolyCollection_4">
    <defs>
     <path id="mb2f1a744f0" d="M 244.049034 -116.21991 
L 243.881966 -116.21991 
L 243.849033 -116.72095 
L 243.805707 -117.22199 
L 243.749703 -117.72303 
L 243.678556 -118.224069 
L 243.589711 -118.725109 
L 243.480633 -119.226149 
L 243.348943 -119.727189 
L 243.192576 -120.228228 
L 243.009938 -120.729268 
L 242.800073 -121.230308 
L 242.562801 -121.731348 
L 242.298844 -122.232388 
L 242.009892 -122.733427 
L 241.698635 -123.234467 
L 241.368723 -123.735507 
L 241.024669 -124.236547 
L 240.67169 -124.737587 
L 240.315494 -125.238626 
L 239.962029 -125.739666 
L 239.617208 -126.240706 
L 239.286637 -126.741746 
L 238.975361 -127.242786 
L 238.687665 -127.743825 
L 238.426931 -128.244865 
L 238.195581 -128.745905 
L 237.995094 -129.246945 
L 237.826104 -129.747985 
L 237.688559 -130.249024 
L 237.58192 -130.750064 
L 237.505363 -131.251104 
L 237.457979 -131.752144 
L 237.43891 -132.253183 
L 237.447443 -132.754223 
L 237.483022 -133.255263 
L 237.54519 -133.756303 
L 237.633489 -134.257343 
L 237.747319 -134.758382 
L 237.885792 -135.259422 
L 238.047612 -135.760462 
L 238.230999 -136.261502 
L 238.433662 -136.762542 
L 238.652838 -137.263581 
L 238.88537 -137.764621 
L 239.127835 -138.265661 
L 239.376671 -138.766701 
L 239.628307 -139.267741 
L 239.879275 -139.76878 
L 240.126292 -140.26982 
L 240.36632 -140.77086 
L 240.596603 -141.2719 
L 240.814694 -141.77294 
L 241.018481 -142.273979 
L 241.20622 -142.775019 
L 241.376573 -143.276059 
L 241.528641 -143.777099 
L 241.662002 -144.278139 
L 241.776713 -144.779178 
L 241.873307 -145.280218 
L 241.952741 -145.781258 
L 242.016328 -146.282298 
L 242.06565 -146.783337 
L 242.102457 -147.284377 
L 242.12858 -147.785417 
L 242.145864 -148.286457 
L 242.156126 -148.787497 
L 242.161139 -149.288536 
L 242.16265 -149.789576 
L 242.162391 -150.290616 
L 242.162113 -150.791656 
L 242.163585 -151.292696 
L 242.168583 -151.793735 
L 242.178849 -152.294775 
L 242.196023 -152.795815 
L 242.221559 -153.296855 
L 242.256638 -153.797895 
L 242.302077 -154.298934 
L 242.35827 -154.799974 
L 242.42514 -155.301014 
L 242.502137 -155.802054 
L 242.588258 -156.303094 
L 242.682099 -156.804133 
L 242.781938 -157.305173 
L 242.885822 -157.806213 
L 242.99168 -158.307253 
L 243.09742 -158.808293 
L 243.201038 -159.309332 
L 243.3007 -159.810372 
L 243.394825 -160.311412 
L 243.482134 -160.812452 
L 243.561684 -161.313491 
L 243.632884 -161.814531 
L 243.695483 -162.315571 
L 243.749542 -162.816611 
L 243.795392 -163.317651 
L 243.83358 -163.81869 
L 243.864809 -164.31973 
L 243.889882 -164.82077 
L 243.90964 -165.32181 
L 243.924922 -165.82285 
L 244.006078 -165.82285 
L 244.006078 -165.82285 
L 244.02136 -165.32181 
L 244.041118 -164.82077 
L 244.066191 -164.31973 
L 244.09742 -163.81869 
L 244.135608 -163.317651 
L 244.181458 -162.816611 
L 244.235517 -162.315571 
L 244.298116 -161.814531 
L 244.369316 -161.313491 
L 244.448866 -160.812452 
L 244.536175 -160.311412 
L 244.6303 -159.810372 
L 244.729962 -159.309332 
L 244.83358 -158.808293 
L 244.93932 -158.307253 
L 245.045178 -157.806213 
L 245.149062 -157.305173 
L 245.248901 -156.804133 
L 245.342742 -156.303094 
L 245.428863 -155.802054 
L 245.50586 -155.301014 
L 245.57273 -154.799974 
L 245.628923 -154.298934 
L 245.674362 -153.797895 
L 245.709441 -153.296855 
L 245.734977 -152.795815 
L 245.752151 -152.294775 
L 245.762417 -151.793735 
L 245.767415 -151.292696 
L 245.768887 -150.791656 
L 245.768609 -150.290616 
L 245.76835 -149.789576 
L 245.769861 -149.288536 
L 245.774874 -148.787497 
L 245.785136 -148.286457 
L 245.80242 -147.785417 
L 245.828543 -147.284377 
L 245.86535 -146.783337 
L 245.914672 -146.282298 
L 245.978259 -145.781258 
L 246.057693 -145.280218 
L 246.154287 -144.779178 
L 246.268998 -144.278139 
L 246.402359 -143.777099 
L 246.554427 -143.276059 
L 246.72478 -142.775019 
L 246.912519 -142.273979 
L 247.116306 -141.77294 
L 247.334397 -141.2719 
L 247.56468 -140.77086 
L 247.804708 -140.26982 
L 248.051725 -139.76878 
L 248.302693 -139.267741 
L 248.554329 -138.766701 
L 248.803165 -138.265661 
L 249.04563 -137.764621 
L 249.278162 -137.263581 
L 249.497338 -136.762542 
L 249.700001 -136.261502 
L 249.883388 -135.760462 
L 250.045208 -135.259422 
L 250.183681 -134.758382 
L 250.297511 -134.257343 
L 250.38581 -133.756303 
L 250.447978 -133.255263 
L 250.483557 -132.754223 
L 250.49209 -132.253183 
L 250.473021 -131.752144 
L 250.425637 -131.251104 
L 250.34908 -130.750064 
L 250.242441 -130.249024 
L 250.104896 -129.747985 
L 249.935906 -129.246945 
L 249.735419 -128.745905 
L 249.504069 -128.244865 
L 249.243335 -127.743825 
L 248.955639 -127.242786 
L 248.644363 -126.741746 
L 248.313792 -126.240706 
L 247.968971 -125.739666 
L 247.615506 -125.238626 
L 247.25931 -124.737587 
L 246.906331 -124.236547 
L 246.562277 -123.735507 
L 246.232365 -123.234467 
L 245.921108 -122.733427 
L 245.632156 -122.232388 
L 245.368199 -121.731348 
L 245.130927 -121.230308 
L 244.921062 -120.729268 
L 244.738424 -120.228228 
L 244.582057 -119.727189 
L 244.450367 -119.226149 
L 244.341289 -118.725109 
L 244.252444 -118.224069 
L 244.181297 -117.72303 
L 244.125293 -117.22199 
L 244.081967 -116.72095 
L 244.049034 -116.21991 
z
" style="stroke: #4c4c4c; stroke-width: 1.5"/>
    </defs>
    <g clip-path="url(#p1fe49206c6)">
     <use xlink:href="#mb2f1a744f0" x="0" y="275.858171" style="fill: #b55d60; stroke: #4c4c4c; stroke-width: 1.5"/>
    </g>
   </g>
   <g id="PolyCollection_5">
    <defs>
     <path id="m2e190a231f" d="M 299.781039 -133.566294 
L 299.749961 -133.566294 
L 299.741764 -134.81272 
L 299.730022 -136.059145 
L 299.713549 -137.305571 
L 299.690888 -138.551997 
L 299.660308 -139.798423 
L 299.61982 -141.044848 
L 299.567248 -142.291274 
L 299.500355 -143.5377 
L 299.417052 -144.784125 
L 299.315668 -146.030551 
L 299.195267 -147.276977 
L 299.055964 -148.523402 
L 298.899179 -149.769828 
L 298.727745 -151.016254 
L 298.545833 -152.262679 
L 298.358647 -153.509105 
L 298.171911 -154.755531 
L 297.991227 -156.001957 
L 297.821391 -157.248382 
L 297.665803 -158.494808 
L 297.526089 -159.741234 
L 297.402012 -160.987659 
L 297.291692 -162.234085 
L 297.192116 -163.480511 
L 297.099827 -164.726936 
L 297.011682 -165.973362 
L 296.925553 -167.219788 
L 296.840835 -168.466213 
L 296.758701 -169.712639 
L 296.682053 -170.959065 
L 296.61518 -172.205491 
L 296.56318 -173.451916 
L 296.531238 -174.698342 
L 296.523857 -175.944768 
L 296.544169 -177.191193 
L 296.593434 -178.437619 
L 296.670805 -179.684045 
L 296.773402 -180.93047 
L 296.896683 -182.176896 
L 297.035038 -183.423322 
L 297.182517 -184.669747 
L 297.333536 -185.916173 
L 297.483464 -187.162599 
L 297.628968 -188.409024 
L 297.768105 -189.65545 
L 297.900151 -190.901876 
L 298.025256 -192.148302 
L 298.144008 -193.394727 
L 298.257031 -194.641153 
L 298.364682 -195.887579 
L 298.466936 -197.134004 
L 298.563424 -198.38043 
L 298.653628 -199.626856 
L 298.73713 -200.873281 
L 298.813861 -202.119707 
L 298.884256 -203.366133 
L 298.949283 -204.612558 
L 299.01033 -205.858984 
L 299.068977 -207.10541 
L 299.126715 -208.351836 
L 299.184671 -209.598261 
L 299.243404 -210.844687 
L 299.30282 -212.091113 
L 299.362197 -213.337538 
L 299.420327 -214.583964 
L 299.475719 -215.83039 
L 299.526834 -217.076815 
L 299.572293 -218.323241 
L 299.61104 -219.569667 
L 299.642436 -220.816092 
L 299.66629 -222.062518 
L 299.682833 -223.308944 
L 299.69266 -224.55537 
L 299.696646 -225.801795 
L 299.695853 -227.048221 
L 299.691444 -228.294647 
L 299.684591 -229.541072 
L 299.676407 -230.787498 
L 299.667875 -232.033924 
L 299.65981 -233.280349 
L 299.652838 -234.526775 
L 299.6474 -235.773201 
L 299.643784 -237.019626 
L 299.642153 -238.266052 
L 299.642588 -239.512478 
L 299.645105 -240.758904 
L 299.649662 -242.005329 
L 299.656147 -243.251755 
L 299.664359 -244.498181 
L 299.673995 -245.744606 
L 299.684652 -246.991032 
L 299.695852 -248.237458 
L 299.707085 -249.483883 
L 299.717861 -250.730309 
L 299.727766 -251.976735 
L 299.736498 -253.22316 
L 299.743887 -254.469586 
L 299.749894 -255.716012 
L 299.754586 -256.962437 
L 299.776414 -256.962437 
L 299.776414 -256.962437 
L 299.781106 -255.716012 
L 299.787113 -254.469586 
L 299.794502 -253.22316 
L 299.803234 -251.976735 
L 299.813139 -250.730309 
L 299.823915 -249.483883 
L 299.835148 -248.237458 
L 299.846348 -246.991032 
L 299.857005 -245.744606 
L 299.866641 -244.498181 
L 299.874853 -243.251755 
L 299.881338 -242.005329 
L 299.885895 -240.758904 
L 299.888412 -239.512478 
L 299.888847 -238.266052 
L 299.887216 -237.019626 
L 299.8836 -235.773201 
L 299.878162 -234.526775 
L 299.87119 -233.280349 
L 299.863125 -232.033924 
L 299.854593 -230.787498 
L 299.846409 -229.541072 
L 299.839556 -228.294647 
L 299.835147 -227.048221 
L 299.834354 -225.801795 
L 299.83834 -224.55537 
L 299.848167 -223.308944 
L 299.86471 -222.062518 
L 299.888564 -220.816092 
L 299.91996 -219.569667 
L 299.958707 -218.323241 
L 300.004166 -217.076815 
L 300.055281 -215.83039 
L 300.110673 -214.583964 
L 300.168803 -213.337538 
L 300.22818 -212.091113 
L 300.287596 -210.844687 
L 300.346329 -209.598261 
L 300.404285 -208.351836 
L 300.462023 -207.10541 
L 300.52067 -205.858984 
L 300.581717 -204.612558 
L 300.646744 -203.366133 
L 300.717139 -202.119707 
L 300.79387 -200.873281 
L 300.877372 -199.626856 
L 300.967576 -198.38043 
L 301.064064 -197.134004 
L 301.166318 -195.887579 
L 301.273969 -194.641153 
L 301.386992 -193.394727 
L 301.505744 -192.148302 
L 301.630849 -190.901876 
L 301.762895 -189.65545 
L 301.902032 -188.409024 
L 302.047536 -187.162599 
L 302.197464 -185.916173 
L 302.348483 -184.669747 
L 302.495962 -183.423322 
L 302.634317 -182.176896 
L 302.757598 -180.93047 
L 302.860195 -179.684045 
L 302.937566 -178.437619 
L 302.986831 -177.191193 
L 303.007143 -175.944768 
L 302.999762 -174.698342 
L 302.96782 -173.451916 
L 302.91582 -172.205491 
L 302.848947 -170.959065 
L 302.772299 -169.712639 
L 302.690165 -168.466213 
L 302.605447 -167.219788 
L 302.519318 -165.973362 
L 302.431173 -164.726936 
L 302.338884 -163.480511 
L 302.239308 -162.234085 
L 302.128988 -160.987659 
L 302.004911 -159.741234 
L 301.865197 -158.494808 
L 301.709609 -157.248382 
L 301.539773 -156.001957 
L 301.359089 -154.755531 
L 301.172353 -153.509105 
L 300.985167 -152.262679 
L 300.803255 -151.016254 
L 300.631821 -149.769828 
L 300.475036 -148.523402 
L 300.335733 -147.276977 
L 300.215332 -146.030551 
L 300.113948 -144.784125 
L 300.030645 -143.5377 
L 299.963752 -142.291274 
L 299.91118 -141.044848 
L 299.870692 -139.798423 
L 299.840112 -138.551997 
L 299.817451 -137.305571 
L 299.800978 -136.059145 
L 299.789236 -134.81272 
L 299.781039 -133.566294 
z
" style="stroke: #4c4c4c; stroke-width: 1.5"/>
    </defs>
    <g clip-path="url(#p1fe49206c6)">
     <use xlink:href="#m2e190a231f" x="0" y="275.858171" style="fill: #857aab; stroke: #4c4c4c; stroke-width: 1.5"/>
    </g>
   </g>
   <g id="line2d_7">
    <path d="M 76.5655 217.118966 
L 76.5655 205.180053 
" clip-path="url(#p1fe49206c6)" style="fill: none; stroke: #4c4c4c; stroke-width: 1.5; stroke-linecap: round"/>
   </g>
   <g id="line2d_8">
    <path d="M 76.5655 212.388423 
L 76.5655 209.137319 
" clip-path="url(#p1fe49206c6)" style="fill: none; stroke: #4c4c4c; stroke-width: 4.5; stroke-linecap: round"/>
   </g>
   <g id="line2d_9">
    <path d="M 132.3655 201.108951 
L 132.3655 190.507669 
" clip-path="url(#p1fe49206c6)" style="fill: none; stroke: #4c4c4c; stroke-width: 1.5; stroke-linecap: round"/>
   </g>
   <g id="line2d_10">
    <path d="M 132.3655 196.959473 
L 132.3655 194.152484 
" clip-path="url(#p1fe49206c6)" style="fill: none; stroke: #4c4c4c; stroke-width: 4.5; stroke-linecap: round"/>
   </g>
   <g id="line2d_11">
    <path d="M 188.1655 184.733318 
L 188.1655 171.771444 
" clip-path="url(#p1fe49206c6)" style="fill: none; stroke: #4c4c4c; stroke-width: 1.5; stroke-linecap: round"/>
   </g>
   <g id="line2d_12">
    <path d="M 188.1655 179.786413 
L 188.1655 176.111122 
" clip-path="url(#p1fe49206c6)" style="fill: none; stroke: #4c4c4c; stroke-width: 4.5; stroke-linecap: round"/>
   </g>
   <g id="line2d_13">
    <path d="M 243.9655 152.574834 
L 243.9655 118.57606 
" clip-path="url(#p1fe49206c6)" style="fill: none; stroke: #4c4c4c; stroke-width: 1.5; stroke-linecap: round"/>
   </g>
   <g id="line2d_14">
    <path d="M 243.9655 146.074901 
L 243.9655 135.028847 
" clip-path="url(#p1fe49206c6)" style="fill: none; stroke: #4c4c4c; stroke-width: 4.5; stroke-linecap: round"/>
   </g>
   <g id="line2d_15">
    <path d="M 299.7655 128.745048 
L 299.7655 63.000127 
" clip-path="url(#p1fe49206c6)" style="fill: none; stroke: #4c4c4c; stroke-width: 1.5; stroke-linecap: round"/>
   </g>
   <g id="line2d_16">
    <path d="M 299.7655 110.329775 
L 299.7655 89.075907 
" clip-path="url(#p1fe49206c6)" style="fill: none; stroke: #4c4c4c; stroke-width: 4.5; stroke-linecap: round"/>
   </g>
   <g id="patch_3">
    <path d="M 48.6655 230.575733 
L 48.6655 8.815733 
" style="fill: none; stroke: #cccccc; stroke-width: 1.25; stroke-linejoin: miter; stroke-linecap: square"/>
   </g>
   <g id="patch_4">
    <path d="M 327.6655 230.575733 
L 327.6655 8.815733 
" style="fill: none; stroke: #cccccc; stroke-width: 1.25; stroke-linejoin: miter; stroke-linecap: square"/>
   </g>
   <g id="patch_5">
    <path d="M 48.6655 230.575733 
L 327.6655 230.575733 
" style="fill: none; stroke: #cccccc; stroke-width: 1.25; stroke-linejoin: miter; stroke-linecap: square"/>
   </g>
   <g id="patch_6">
    <path d="M 48.6655 8.815733 
L 327.6655 8.815733 
" style="fill: none; stroke: #cccccc; stroke-width: 1.25; stroke-linejoin: miter; stroke-linecap: square"/>
   </g>
   <g id="PathCollection_1">
    <defs>
     <path id="mcc92562640" d="M 0 1.5 
C 0.397805 1.5 0.77937 1.341951 1.06066 1.06066 
C 1.341951 0.77937 1.5 0.397805 1.5 0 
C 1.5 -0.397805 1.341951 -0.77937 1.06066 -1.06066 
C 0.77937 -1.341951 0.397805 -1.5 0 -1.5 
C -0.397805 -1.5 -0.77937 -1.341951 -1.06066 -1.06066 
C -1.341951 -0.77937 -1.5 -0.397805 -1.5 0 
C -1.5 0.397805 -1.341951 0.77937 -1.06066 1.06066 
C -0.77937 1.341951 -0.397805 1.5 0 1.5 
z
" style="stroke: #4c4c4c"/>
    </defs>
    <g clip-path="url(#p1fe49206c6)">
     <use xlink:href="#mcc92562640" x="76.5655" y="210.620862" style="fill: #ffffff; stroke: #4c4c4c"/>
    </g>
   </g>
   <g id="PathCollection_2">
    <g clip-path="url(#p1fe49206c6)">
     <use xlink:href="#mcc92562640" x="132.3655" y="195.443149" style="fill: #ffffff; stroke: #4c4c4c"/>
    </g>
   </g>
   <g id="PathCollection_3">
    <g clip-path="url(#p1fe49206c6)">
     <use xlink:href="#mcc92562640" x="188.1655" y="177.920239" style="fill: #ffffff; stroke: #4c4c4c"/>
    </g>
   </g>
   <g id="PathCollection_4">
    <g clip-path="url(#p1fe49206c6)">
     <use xlink:href="#mcc92562640" x="243.9655" y="141.06167" style="fill: #ffffff; stroke: #4c4c4c"/>
    </g>
   </g>
   <g id="PathCollection_5">
    <g clip-path="url(#p1fe49206c6)">
     <use xlink:href="#mcc92562640" x="299.7655" y="99.070633" style="fill: #ffffff; stroke: #4c4c4c"/>
    </g>
   </g>
  </g>
 </g>
 <defs>
  <clipPath id="p1fe49206c6">
   <rect x="48.6655" y="8.815733" width="279" height="221.76"/>
  </clipPath>
 </defs>
</svg>
