<?xml version="1.0" encoding="utf-8" standalone="no"?>
<!DOCTYPE svg PUBLIC "-//W3C//DTD SVG 1.1//EN"
  "http://www.w3.org/Graphics/SVG/1.1/DTD/svg11.dtd">
<svg xmlns:xlink="http://www.w3.org/1999/xlink" width="334.8655pt" height="274.242437pt" viewBox="0 0 334.8655 274.242437" xmlns="http://www.w3.org/2000/svg" version="1.1">
 <metadata>
  <rdf:RDF xmlns:dc="http://purl.org/dc/elements/1.1/" xmlns:cc="http://creativecommons.org/ns#" xmlns:rdf="http://www.w3.org/1999/02/22-rdf-syntax-ns#">
   <cc:Work>
    <dc:type rdf:resource="http://purl.org/dc/dcmitype/StillImage"/>
    <dc:date>2024-04-28T22:10:05.861752</dc:date>
    <dc:format>image/svg+xml</dc:format>
    <dc:creator>
     <cc:Agent>
      <dc:title>Matplotlib v3.7.2, https://matplotlib.org/</dc:title>
     </cc:Agent>
    </dc:creator>
   </cc:Work>
  </rdf:RDF>
 </metadata>
 <defs>
  <style type="text/css">*{stroke-linejoin: round; stroke-linecap: butt}</style>
 </defs>
 <g id="figure_1">
  <g id="patch_1">
   <path d="M 0 274.242437 
L 334.8655 274.242437 
L 334.8655 0 
L 0 0 
z
" style="fill: #ffffff"/>
  </g>
  <g id="axes_1">
   <g id="patch_2">
    <path d="M 48.6655 228.96 
L 327.6655 228.96 
L 327.6655 7.2 
L 48.6655 7.2 
z
" style="fill: #ffffff"/>
   </g>
   <g id="matplotlib.axis_1">
    <g id="xtick_1">
     <g id="text_1">
      <!-- 0.0 -->
      <g style="fill: #262626" transform="translate(67.818781 246.818281) scale(0.11 -0.11)">
       <defs>
        <path id="DejaVuSans-30" d="M 2034 4250 
Q 1547 4250 1301 3770 
Q 1056 3291 1056 2328 
Q 1056 1369 1301 889 
Q 1547 409 2034 409 
Q 2525 409 2770 889 
Q 3016 1369 3016 2328 
Q 3016 3291 2770 3770 
Q 2525 4250 2034 4250 
z
M 2034 4750 
Q 2819 4750 3233 4129 
Q 3647 3509 3647 2328 
Q 3647 1150 3233 529 
Q 2819 -91 2034 -91 
Q 1250 -91 836 529 
Q 422 1150 422 2328 
Q 422 3509 836 4129 
Q 1250 4750 2034 4750 
z
" transform="scale(0.015625)"/>
        <path id="DejaVuSans-2e" d="M 684 794 
L 1344 794 
L 1344 0 
L 684 0 
L 684 794 
z
" transform="scale(0.015625)"/>
       </defs>
       <use xlink:href="#DejaVuSans-30"/>
       <use xlink:href="#DejaVuSans-2e" x="63.623047"/>
       <use xlink:href="#DejaVuSans-30" x="95.410156"/>
      </g>
     </g>
    </g>
    <g id="xtick_2">
     <g id="text_2">
      <!-- 0.5 -->
      <g style="fill: #262626" transform="translate(123.618781 246.818281) scale(0.11 -0.11)">
       <defs>
        <path id="DejaVuSans-35" d="M 691 4666 
L 3169 4666 
L 3169 4134 
L 1269 4134 
L 1269 2991 
Q 1406 3038 1543 3061 
Q 1681 3084 1819 3084 
Q 2600 3084 3056 2656 
Q 3513 2228 3513 1497 
Q 3513 744 3044 326 
Q 2575 -91 1722 -91 
Q 1428 -91 1123 -41 
Q 819 9 494 109 
L 494 744 
Q 775 591 1075 516 
Q 1375 441 1709 441 
Q 2250 441 2565 725 
Q 2881 1009 2881 1497 
Q 2881 1984 2565 2268 
Q 2250 2553 1709 2553 
Q 1456 2553 1204 2497 
Q 953 2441 691 2322 
L 691 4666 
z
" transform="scale(0.015625)"/>
       </defs>
       <use xlink:href="#DejaVuSans-30"/>
       <use xlink:href="#DejaVuSans-2e" x="63.623047"/>
       <use xlink:href="#DejaVuSans-35" x="95.410156"/>
      </g>
     </g>
    </g>
    <g id="xtick_3">
     <g id="text_3">
      <!-- 1.0 -->
      <g style="fill: #262626" transform="translate(179.418781 246.818281) scale(0.11 -0.11)">
       <defs>
        <path id="DejaVuSans-31" d="M 794 531 
L 1825 531 
L 1825 4091 
L 703 3866 
L 703 4441 
L 1819 4666 
L 2450 4666 
L 2450 531 
L 3481 531 
L 3481 0 
L 794 0 
L 794 531 
z
" transform="scale(0.015625)"/>
       </defs>
       <use xlink:href="#DejaVuSans-31"/>
       <use xlink:href="#DejaVuSans-2e" x="63.623047"/>
       <use xlink:href="#DejaVuSans-30" x="95.410156"/>
      </g>
     </g>
    </g>
    <g id="xtick_4">
     <g id="text_4">
      <!-- 2.0 -->
      <g style="fill: #262626" transform="translate(235.218781 246.818281) scale(0.11 -0.11)">
       <defs>
        <path id="DejaVuSans-32" d="M 1228 531 
L 3431 531 
L 3431 0 
L 469 0 
L 469 531 
Q 828 903 1448 1529 
Q 2069 2156 2228 2338 
Q 2531 2678 2651 2914 
Q 2772 3150 2772 3378 
Q 2772 3750 2511 3984 
Q 2250 4219 1831 4219 
Q 1534 4219 1204 4116 
Q 875 4013 500 3803 
L 500 4441 
Q 881 4594 1212 4672 
Q 1544 4750 1819 4750 
Q 2544 4750 2975 4387 
Q 3406 4025 3406 3419 
Q 3406 3131 3298 2873 
Q 3191 2616 2906 2266 
Q 2828 2175 2409 1742 
Q 1991 1309 1228 531 
z
" transform="scale(0.015625)"/>
       </defs>
       <use xlink:href="#DejaVuSans-32"/>
       <use xlink:href="#DejaVuSans-2e" x="63.623047"/>
       <use xlink:href="#DejaVuSans-30" x="95.410156"/>
      </g>
     </g>
    </g>
    <g id="xtick_5">
     <g id="text_5">
      <!-- 4.0 -->
      <g style="fill: #262626" transform="translate(291.018781 246.818281) scale(0.11 -0.11)">
       <defs>
        <path id="DejaVuSans-34" d="M 2419 4116 
L 825 1625 
L 2419 1625 
L 2419 4116 
z
M 2253 4666 
L 3047 4666 
L 3047 1625 
L 3713 1625 
L 3713 1100 
L 3047 1100 
L 3047 0 
L 2419 0 
L 2419 1100 
L 313 1100 
L 313 1709 
L 2253 4666 
z
" transform="scale(0.015625)"/>
       </defs>
       <use xlink:href="#DejaVuSans-34"/>
       <use xlink:href="#DejaVuSans-2e" x="63.623047"/>
       <use xlink:href="#DejaVuSans-30" x="95.410156"/>
      </g>
     </g>
    </g>
    <g id="text_6">
     <!-- $\sigma$ -->
     <g style="fill: #262626" transform="translate(183.5575 264.047687) scale(0.144 -0.144)">
      <defs>
       <path id="DejaVuSans-Oblique-3c3" d="M 2219 3044 
Q 1744 3044 1422 2700 
Q 1081 2341 969 1747 
Q 844 1119 1044 756 
Q 1241 397 1706 397 
Q 2166 397 2503 759 
Q 2844 1122 2966 1747 
Q 3075 2319 2881 2700 
Q 2700 3044 2219 3044 
z
M 2309 3503 
L 4219 3500 
L 4106 2925 
L 3463 2925 
Q 3706 2438 3575 1747 
Q 3406 888 2884 400 
Q 2359 -91 1609 -91 
Q 856 -91 525 400 
Q 194 888 363 1747 
Q 528 2609 1050 3097 
Q 1484 3503 2309 3503 
z
" transform="scale(0.015625)"/>
      </defs>
      <use xlink:href="#DejaVuSans-Oblique-3c3" transform="translate(0 0.265625)"/>
     </g>
    </g>
   </g>
   <g id="matplotlib.axis_2">
    <g id="ytick_1">
     <g id="line2d_1">
      <path d="M 48.6655 207.88175 
L 327.6655 207.88175 
" clip-path="url(#p04e4b3661a)" style="fill: none; stroke: #cccccc; stroke-linecap: round"/>
     </g>
     <g id="text_7">
      <!-- 0 -->
      <g style="fill: #262626" transform="translate(32.16675 212.060891) scale(0.11 -0.11)">
       <use xlink:href="#DejaVuSans-30"/>
      </g>
     </g>
    </g>
    <g id="ytick_2">
     <g id="line2d_2">
      <path d="M 48.6655 162.928265 
L 327.6655 162.928265 
" clip-path="url(#p04e4b3661a)" style="fill: none; stroke: #cccccc; stroke-linecap: round"/>
     </g>
     <g id="text_8">
      <!-- 5 -->
      <g style="fill: #262626" transform="translate(32.16675 167.107405) scale(0.11 -0.11)">
       <use xlink:href="#DejaVuSans-35"/>
      </g>
     </g>
    </g>
    <g id="ytick_3">
     <g id="line2d_3">
      <path d="M 48.6655 117.974779 
L 327.6655 117.974779 
" clip-path="url(#p04e4b3661a)" style="fill: none; stroke: #cccccc; stroke-linecap: round"/>
     </g>
     <g id="text_9">
      <!-- 10 -->
      <g style="fill: #262626" transform="translate(25.168 122.15392) scale(0.11 -0.11)">
       <use xlink:href="#DejaVuSans-31"/>
       <use xlink:href="#DejaVuSans-30" x="63.623047"/>
      </g>
     </g>
    </g>
    <g id="ytick_4">
     <g id="line2d_4">
      <path d="M 48.6655 73.021294 
L 327.6655 73.021294 
" clip-path="url(#p04e4b3661a)" style="fill: none; stroke: #cccccc; stroke-linecap: round"/>
     </g>
     <g id="text_10">
      <!-- 15 -->
      <g style="fill: #262626" transform="translate(25.168 77.200434) scale(0.11 -0.11)">
       <use xlink:href="#DejaVuSans-31"/>
       <use xlink:href="#DejaVuSans-35" x="63.623047"/>
      </g>
     </g>
    </g>
    <g id="ytick_5">
     <g id="line2d_5">
      <path d="M 48.6655 28.067808 
L 327.6655 28.067808 
" clip-path="url(#p04e4b3661a)" style="fill: none; stroke: #cccccc; stroke-linecap: round"/>
     </g>
     <g id="text_11">
      <!-- 20 -->
      <g style="fill: #262626" transform="translate(25.168 32.246949) scale(0.11 -0.11)">
       <use xlink:href="#DejaVuSans-32"/>
       <use xlink:href="#DejaVuSans-30" x="63.623047"/>
      </g>
     </g>
    </g>
    <g id="text_12">
     <!-- Learned prior, $R_\theta$ -->
     <g style="fill: #262626" transform="translate(18.144 179.568) rotate(-90) scale(0.144 -0.144)">
      <defs>
       <path id="DejaVuSans-4c" d="M 628 4666 
L 1259 4666 
L 1259 531 
L 3531 531 
L 3531 0 
L 628 0 
L 628 4666 
z
" transform="scale(0.015625)"/>
       <path id="DejaVuSans-65" d="M 3597 1894 
L 3597 1613 
L 953 1613 
Q 991 1019 1311 708 
Q 1631 397 2203 397 
Q 2534 397 2845 478 
Q 3156 559 3463 722 
L 3463 178 
Q 3153 47 2828 -22 
Q 2503 -91 2169 -91 
Q 1331 -91 842 396 
Q 353 884 353 1716 
Q 353 2575 817 3079 
Q 1281 3584 2069 3584 
Q 2775 3584 3186 3129 
Q 3597 2675 3597 1894 
z
M 3022 2063 
Q 3016 2534 2758 2815 
Q 2500 3097 2075 3097 
Q 1594 3097 1305 2825 
Q 1016 2553 972 2059 
L 3022 2063 
z
" transform="scale(0.015625)"/>
       <path id="DejaVuSans-61" d="M 2194 1759 
Q 1497 1759 1228 1600 
Q 959 1441 959 1056 
Q 959 750 1161 570 
Q 1363 391 1709 391 
Q 2188 391 2477 730 
Q 2766 1069 2766 1631 
L 2766 1759 
L 2194 1759 
z
M 3341 1997 
L 3341 0 
L 2766 0 
L 2766 531 
Q 2569 213 2275 61 
Q 1981 -91 1556 -91 
Q 1019 -91 701 211 
Q 384 513 384 1019 
Q 384 1609 779 1909 
Q 1175 2209 1959 2209 
L 2766 2209 
L 2766 2266 
Q 2766 2663 2505 2880 
Q 2244 3097 1772 3097 
Q 1472 3097 1187 3025 
Q 903 2953 641 2809 
L 641 3341 
Q 956 3463 1253 3523 
Q 1550 3584 1831 3584 
Q 2591 3584 2966 3190 
Q 3341 2797 3341 1997 
z
" transform="scale(0.015625)"/>
       <path id="DejaVuSans-72" d="M 2631 2963 
Q 2534 3019 2420 3045 
Q 2306 3072 2169 3072 
Q 1681 3072 1420 2755 
Q 1159 2438 1159 1844 
L 1159 0 
L 581 0 
L 581 3500 
L 1159 3500 
L 1159 2956 
Q 1341 3275 1631 3429 
Q 1922 3584 2338 3584 
Q 2397 3584 2469 3576 
Q 2541 3569 2628 3553 
L 2631 2963 
z
" transform="scale(0.015625)"/>
       <path id="DejaVuSans-6e" d="M 3513 2113 
L 3513 0 
L 2938 0 
L 2938 2094 
Q 2938 2591 2744 2837 
Q 2550 3084 2163 3084 
Q 1697 3084 1428 2787 
Q 1159 2491 1159 1978 
L 1159 0 
L 581 0 
L 581 3500 
L 1159 3500 
L 1159 2956 
Q 1366 3272 1645 3428 
Q 1925 3584 2291 3584 
Q 2894 3584 3203 3211 
Q 3513 2838 3513 2113 
z
" transform="scale(0.015625)"/>
       <path id="DejaVuSans-64" d="M 2906 2969 
L 2906 4863 
L 3481 4863 
L 3481 0 
L 2906 0 
L 2906 525 
Q 2725 213 2448 61 
Q 2172 -91 1784 -91 
Q 1150 -91 751 415 
Q 353 922 353 1747 
Q 353 2572 751 3078 
Q 1150 3584 1784 3584 
Q 2172 3584 2448 3432 
Q 2725 3281 2906 2969 
z
M 947 1747 
Q 947 1113 1208 752 
Q 1469 391 1925 391 
Q 2381 391 2643 752 
Q 2906 1113 2906 1747 
Q 2906 2381 2643 2742 
Q 2381 3103 1925 3103 
Q 1469 3103 1208 2742 
Q 947 2381 947 1747 
z
" transform="scale(0.015625)"/>
       <path id="DejaVuSans-20" transform="scale(0.015625)"/>
       <path id="DejaVuSans-70" d="M 1159 525 
L 1159 -1331 
L 581 -1331 
L 581 3500 
L 1159 3500 
L 1159 2969 
Q 1341 3281 1617 3432 
Q 1894 3584 2278 3584 
Q 2916 3584 3314 3078 
Q 3713 2572 3713 1747 
Q 3713 922 3314 415 
Q 2916 -91 2278 -91 
Q 1894 -91 1617 61 
Q 1341 213 1159 525 
z
M 3116 1747 
Q 3116 2381 2855 2742 
Q 2594 3103 2138 3103 
Q 1681 3103 1420 2742 
Q 1159 2381 1159 1747 
Q 1159 1113 1420 752 
Q 1681 391 2138 391 
Q 2594 391 2855 752 
Q 3116 1113 3116 1747 
z
" transform="scale(0.015625)"/>
       <path id="DejaVuSans-69" d="M 603 3500 
L 1178 3500 
L 1178 0 
L 603 0 
L 603 3500 
z
M 603 4863 
L 1178 4863 
L 1178 4134 
L 603 4134 
L 603 4863 
z
" transform="scale(0.015625)"/>
       <path id="DejaVuSans-6f" d="M 1959 3097 
Q 1497 3097 1228 2736 
Q 959 2375 959 1747 
Q 959 1119 1226 758 
Q 1494 397 1959 397 
Q 2419 397 2687 759 
Q 2956 1122 2956 1747 
Q 2956 2369 2687 2733 
Q 2419 3097 1959 3097 
z
M 1959 3584 
Q 2709 3584 3137 3096 
Q 3566 2609 3566 1747 
Q 3566 888 3137 398 
Q 2709 -91 1959 -91 
Q 1206 -91 779 398 
Q 353 888 353 1747 
Q 353 2609 779 3096 
Q 1206 3584 1959 3584 
z
" transform="scale(0.015625)"/>
       <path id="DejaVuSans-2c" d="M 750 794 
L 1409 794 
L 1409 256 
L 897 -744 
L 494 -744 
L 750 256 
L 750 794 
z
" transform="scale(0.015625)"/>
       <path id="DejaVuSans-Oblique-52" d="M 1613 4147 
L 1294 2491 
L 2106 2491 
Q 2584 2491 2879 2755 
Q 3175 3019 3175 3444 
Q 3175 3784 2976 3965 
Q 2778 4147 2406 4147 
L 1613 4147 
z
M 2772 2241 
Q 2972 2194 3105 2009 
Q 3238 1825 3413 1275 
L 3809 0 
L 3144 0 
L 2778 1197 
Q 2638 1659 2453 1815 
Q 2269 1972 1888 1972 
L 1191 1972 
L 806 0 
L 172 0 
L 1081 4666 
L 2503 4666 
Q 3150 4666 3495 4373 
Q 3841 4081 3841 3531 
Q 3841 3044 3547 2687 
Q 3253 2331 2772 2241 
z
" transform="scale(0.015625)"/>
       <path id="DejaVuSans-Oblique-3b8" d="M 2913 2219 
L 925 2219 
Q 791 1284 928 888 
Q 1100 400 1566 400 
Q 2034 400 2391 891 
Q 2703 1322 2913 2219 
z
M 3009 2750 
Q 3094 3638 2984 3950 
Q 2813 4444 2353 4444 
Q 1875 4444 1525 3956 
Q 1250 3563 1034 2750 
L 3009 2750 
z
M 2444 4913 
Q 3194 4913 3494 4250 
Q 3794 3591 3566 2422 
Q 3341 1256 2781 594 
Q 2225 -72 1475 -72 
Q 722 -72 425 594 
Q 128 1256 353 2422 
Q 581 3591 1134 4250 
Q 1691 4913 2444 4913 
z
" transform="scale(0.015625)"/>
      </defs>
      <use xlink:href="#DejaVuSans-4c" transform="translate(0 0.015625)"/>
      <use xlink:href="#DejaVuSans-65" transform="translate(55.712891 0.015625)"/>
      <use xlink:href="#DejaVuSans-61" transform="translate(117.236328 0.015625)"/>
      <use xlink:href="#DejaVuSans-72" transform="translate(178.515625 0.015625)"/>
      <use xlink:href="#DejaVuSans-6e" transform="translate(219.628906 0.015625)"/>
      <use xlink:href="#DejaVuSans-65" transform="translate(283.007812 0.015625)"/>
      <use xlink:href="#DejaVuSans-64" transform="translate(344.53125 0.015625)"/>
      <use xlink:href="#DejaVuSans-20" transform="translate(408.007812 0.015625)"/>
      <use xlink:href="#DejaVuSans-70" transform="translate(439.794922 0.015625)"/>
      <use xlink:href="#DejaVuSans-72" transform="translate(503.271484 0.015625)"/>
      <use xlink:href="#DejaVuSans-69" transform="translate(544.384766 0.015625)"/>
      <use xlink:href="#DejaVuSans-6f" transform="translate(572.167969 0.015625)"/>
      <use xlink:href="#DejaVuSans-72" transform="translate(633.349609 0.015625)"/>
      <use xlink:href="#DejaVuSans-2c" transform="translate(674.462891 0.015625)"/>
      <use xlink:href="#DejaVuSans-20" transform="translate(706.25 0.015625)"/>
      <use xlink:href="#DejaVuSans-Oblique-52" transform="translate(738.037109 0.015625)"/>
      <use xlink:href="#DejaVuSans-Oblique-3b8" transform="translate(807.519531 -16.390625) scale(0.7)"/>
     </g>
    </g>
   </g>
   <g id="PolyCollection_1">
    <defs>
     <path id="m15a62bf900" d="M 76.875251 -61.111675 
L 76.255749 -61.111675 
L 76.129895 -61.529077 
L 75.967003 -61.946479 
L 75.762012 -62.363881 
L 75.511335 -62.781283 
L 75.213676 -63.198685 
L 74.870807 -63.616088 
L 74.488155 -64.03349 
L 74.075076 -64.450892 
L 73.644699 -64.868294 
L 73.213266 -65.285696 
L 72.79897 -65.703098 
L 72.420379 -66.120501 
L 72.09461 -66.537903 
L 71.835465 -66.955305 
L 71.651792 -67.372707 
L 71.546302 -67.790109 
L 71.515026 -68.207511 
L 71.547518 -68.624914 
L 71.62777 -69.042316 
L 71.735753 -69.459718 
L 71.849335 -69.87712 
L 71.946344 -70.294522 
L 72.006469 -70.711924 
L 72.012757 -71.129327 
L 71.952526 -71.546729 
L 71.81761 -71.964131 
L 71.603977 -72.381533 
L 71.310842 -72.798935 
L 70.939512 -73.216337 
L 70.4922 -73.63374 
L 69.971063 -74.051142 
L 69.377665 -74.468544 
L 68.712964 -74.885946 
L 67.977821 -75.303348 
L 67.173917 -75.72075 
L 66.304874 -76.138153 
L 65.377308 -76.555555 
L 64.401574 -76.972957 
L 63.391959 -77.390359 
L 62.366229 -77.807761 
L 61.344528 -78.225164 
L 60.347768 -78.642566 
L 59.395785 -79.059968 
L 58.505574 -79.47737 
L 57.689967 -79.894772 
L 56.95702 -80.312174 
L 56.310284 -80.729577 
L 55.749912 -81.146979 
L 55.274454 -81.564381 
L 54.882945 -81.981783 
L 54.576874 -82.399185 
L 54.361576 -82.816587 
L 54.246692 -83.23399 
L 54.2455 -83.651392 
L 54.373176 -84.068794 
L 54.644217 -84.486196 
L 55.069501 -84.903598 
L 55.653515 -85.321 
L 56.392308 -85.738403 
L 57.272578 -86.155805 
L 58.272125 -86.573207 
L 59.361628 -86.990609 
L 60.507452 -87.408011 
L 61.675039 -87.825413 
L 62.832289 -88.242816 
L 63.952414 -88.660218 
L 65.015836 -89.07762 
L 66.010912 -89.495022 
L 66.933496 -89.912424 
L 67.785544 -90.329826 
L 68.573124 -90.747229 
L 69.304243 -91.164631 
L 69.986872 -91.582033 
L 70.627484 -91.999435 
L 71.230232 -92.416837 
L 71.796806 -92.834239 
L 72.326832 -93.251642 
L 72.818637 -93.669044 
L 73.270152 -94.086446 
L 73.679754 -94.503848 
L 74.046887 -94.92125 
L 74.372399 -95.338652 
L 74.658557 -95.756055 
L 74.908822 -96.173457 
L 75.127433 -96.590859 
L 75.318927 -97.008261 
L 75.487677 -97.425663 
L 75.637521 -97.843065 
L 75.771536 -98.260468 
L 75.891957 -98.67787 
L 76.000237 -99.095272 
L 76.097202 -99.512674 
L 76.183269 -99.930076 
L 76.258663 -100.347478 
L 76.32361 -100.764881 
L 76.378472 -101.182283 
L 76.423817 -101.599685 
L 76.460431 -102.017087 
L 76.489281 -102.434489 
L 76.641719 -102.434489 
L 76.641719 -102.434489 
L 76.670569 -102.017087 
L 76.707183 -101.599685 
L 76.752528 -101.182283 
L 76.80739 -100.764881 
L 76.872337 -100.347478 
L 76.947731 -99.930076 
L 77.033798 -99.512674 
L 77.130763 -99.095272 
L 77.239043 -98.67787 
L 77.359464 -98.260468 
L 77.493479 -97.843065 
L 77.643323 -97.425663 
L 77.812073 -97.008261 
L 78.003567 -96.590859 
L 78.222178 -96.173457 
L 78.472443 -95.756055 
L 78.758601 -95.338652 
L 79.084113 -94.92125 
L 79.451246 -94.503848 
L 79.860848 -94.086446 
L 80.312363 -93.669044 
L 80.804168 -93.251642 
L 81.334194 -92.834239 
L 81.900768 -92.416837 
L 82.503516 -91.999435 
L 83.144128 -91.582033 
L 83.826757 -91.164631 
L 84.557876 -90.747229 
L 85.345456 -90.329826 
L 86.197504 -89.912424 
L 87.120088 -89.495022 
L 88.115164 -89.07762 
L 89.178586 -88.660218 
L 90.298711 -88.242816 
L 91.455961 -87.825413 
L 92.623548 -87.408011 
L 93.769372 -86.990609 
L 94.858875 -86.573207 
L 95.858422 -86.155805 
L 96.738692 -85.738403 
L 97.477485 -85.321 
L 98.061499 -84.903598 
L 98.486783 -84.486196 
L 98.757824 -84.068794 
L 98.8855 -83.651392 
L 98.884308 -83.23399 
L 98.769424 -82.816587 
L 98.554126 -82.399185 
L 98.248055 -81.981783 
L 97.856546 -81.564381 
L 97.381088 -81.146979 
L 96.820716 -80.729577 
L 96.17398 -80.312174 
L 95.441033 -79.894772 
L 94.625426 -79.47737 
L 93.735215 -79.059968 
L 92.783232 -78.642566 
L 91.786472 -78.225164 
L 90.764771 -77.807761 
L 89.739041 -77.390359 
L 88.729426 -76.972957 
L 87.753692 -76.555555 
L 86.826126 -76.138153 
L 85.957083 -75.72075 
L 85.153179 -75.303348 
L 84.418036 -74.885946 
L 83.753335 -74.468544 
L 83.159937 -74.051142 
L 82.6388 -73.63374 
L 82.191488 -73.216337 
L 81.820158 -72.798935 
L 81.527023 -72.381533 
L 81.31339 -71.964131 
L 81.178474 -71.546729 
L 81.118243 -71.129327 
L 81.124531 -70.711924 
L 81.184656 -70.294522 
L 81.281665 -69.87712 
L 81.395247 -69.459718 
L 81.50323 -69.042316 
L 81.583482 -68.624914 
L 81.615974 -68.207511 
L 81.584698 -67.790109 
L 81.479208 -67.372707 
L 81.295535 -66.955305 
L 81.03639 -66.537903 
L 80.710621 -66.120501 
L 80.33203 -65.703098 
L 79.917734 -65.285696 
L 79.486301 -64.868294 
L 79.055924 -64.450892 
L 78.642845 -64.03349 
L 78.260193 -63.616088 
L 77.917324 -63.198685 
L 77.619665 -62.781283 
L 77.368988 -62.363881 
L 77.163997 -61.946479 
L 77.001105 -61.529077 
L 76.875251 -61.111675 
z
" style="stroke: #4c4c4c; stroke-width: 1.5"/>
    </defs>
    <g clip-path="url(#p04e4b3661a)">
     <use xlink:href="#m15a62bf900" x="0" y="274.242437" style="fill: #5875a4; stroke: #4c4c4c; stroke-width: 1.5"/>
    </g>
   </g>
   <g id="PolyCollection_2">
    <defs>
     <path id="m20291cdcd8" d="M 132.667264 -62.766882 
L 132.063736 -62.766882 
L 131.951556 -63.209131 
L 131.809102 -63.65138 
L 131.632619 -64.09363 
L 131.419425 -64.535879 
L 131.168459 -64.978129 
L 130.880802 -65.420378 
L 130.560086 -65.862628 
L 130.212709 -66.304877 
L 129.84778 -66.747126 
L 129.476758 -67.189376 
L 129.112755 -67.631625 
L 128.769557 -68.073875 
L 128.460437 -68.516124 
L 128.196894 -68.958374 
L 127.987459 -69.400623 
L 127.836725 -69.842872 
L 127.744737 -70.285122 
L 127.706819 -70.727371 
L 127.713889 -71.169621 
L 127.75321 -71.61187 
L 127.809515 -72.05412 
L 127.866343 -72.496369 
L 127.907458 -72.938618 
L 127.918161 -73.380868 
L 127.886376 -73.823117 
L 127.803372 -74.265367 
L 127.664075 -74.707616 
L 127.466953 -75.149866 
L 127.213501 -75.592115 
L 126.907432 -76.034364 
L 126.553681 -76.476614 
L 126.157386 -76.918863 
L 125.722986 -77.361113 
L 125.253574 -77.803362 
L 124.750614 -78.245612 
L 124.21406 -78.687861 
L 123.642854 -79.13011 
L 123.035737 -79.57236 
L 122.392221 -80.014609 
L 121.713557 -80.456859 
L 121.003535 -80.899108 
L 120.268947 -81.341358 
L 119.519633 -81.783607 
L 118.768074 -82.225856 
L 118.028581 -82.668106 
L 117.316199 -83.110355 
L 116.645485 -83.552605 
L 116.029355 -83.994854 
L 115.478168 -84.437104 
L 114.999169 -84.879353 
L 114.596382 -85.321602 
L 114.270935 -85.763852 
L 114.021747 -86.206101 
L 113.846451 -86.648351 
L 113.742384 -87.0906 
L 113.707478 -87.53285 
L 113.7409 -87.975099 
L 113.843331 -88.417348 
L 114.016853 -88.859598 
L 114.264453 -89.301847 
L 114.589252 -89.744097 
L 114.99357 -90.186346 
L 115.478 -90.628596 
L 116.040648 -91.070845 
L 116.676649 -91.513094 
L 117.378055 -91.955344 
L 118.134088 -92.397593 
L 118.931743 -92.839843 
L 119.756622 -93.282092 
L 120.593894 -93.724342 
L 121.429253 -94.166591 
L 122.249762 -94.60884 
L 123.04449 -95.05109 
L 123.80492 -95.493339 
L 124.5251 -95.935589 
L 125.201576 -96.377838 
L 125.833143 -96.820088 
L 126.420474 -97.262337 
L 126.96567 -97.704586 
L 127.471789 -98.146836 
L 127.942381 -98.589085 
L 128.381075 -99.031335 
L 128.791218 -99.473584 
L 129.175616 -99.915834 
L 129.536358 -100.358083 
L 129.874747 -100.800332 
L 130.191337 -101.242582 
L 130.486049 -101.684831 
L 130.758359 -102.127081 
L 131.007527 -102.56933 
L 131.232832 -103.01158 
L 131.433786 -103.453829 
L 131.610302 -103.896078 
L 131.762799 -104.338328 
L 131.892235 -104.780577 
L 132.000073 -105.222827 
L 132.0882 -105.665076 
L 132.158799 -106.107326 
L 132.214218 -106.549575 
L 132.516782 -106.549575 
L 132.516782 -106.549575 
L 132.572201 -106.107326 
L 132.6428 -105.665076 
L 132.730927 -105.222827 
L 132.838765 -104.780577 
L 132.968201 -104.338328 
L 133.120698 -103.896078 
L 133.297214 -103.453829 
L 133.498168 -103.01158 
L 133.723473 -102.56933 
L 133.972641 -102.127081 
L 134.244951 -101.684831 
L 134.539663 -101.242582 
L 134.856253 -100.800332 
L 135.194642 -100.358083 
L 135.555384 -99.915834 
L 135.939782 -99.473584 
L 136.349925 -99.031335 
L 136.788619 -98.589085 
L 137.259211 -98.146836 
L 137.76533 -97.704586 
L 138.310526 -97.262337 
L 138.897857 -96.820088 
L 139.529424 -96.377838 
L 140.2059 -95.935589 
L 140.92608 -95.493339 
L 141.68651 -95.05109 
L 142.481238 -94.60884 
L 143.301747 -94.166591 
L 144.137106 -93.724342 
L 144.974378 -93.282092 
L 145.799257 -92.839843 
L 146.596912 -92.397593 
L 147.352945 -91.955344 
L 148.054351 -91.513094 
L 148.690352 -91.070845 
L 149.253 -90.628596 
L 149.73743 -90.186346 
L 150.141748 -89.744097 
L 150.466547 -89.301847 
L 150.714147 -88.859598 
L 150.887669 -88.417348 
L 150.9901 -87.975099 
L 151.023522 -87.53285 
L 150.988616 -87.0906 
L 150.884549 -86.648351 
L 150.709253 -86.206101 
L 150.460065 -85.763852 
L 150.134618 -85.321602 
L 149.731831 -84.879353 
L 149.252832 -84.437104 
L 148.701645 -83.994854 
L 148.085515 -83.552605 
L 147.414801 -83.110355 
L 146.702419 -82.668106 
L 145.962926 -82.225856 
L 145.211367 -81.783607 
L 144.462053 -81.341358 
L 143.727465 -80.899108 
L 143.017443 -80.456859 
L 142.338779 -80.014609 
L 141.695263 -79.57236 
L 141.088146 -79.13011 
L 140.51694 -78.687861 
L 139.980386 -78.245612 
L 139.477426 -77.803362 
L 139.008014 -77.361113 
L 138.573614 -76.918863 
L 138.177319 -76.476614 
L 137.823568 -76.034364 
L 137.517499 -75.592115 
L 137.264047 -75.149866 
L 137.066925 -74.707616 
L 136.927628 -74.265367 
L 136.844624 -73.823117 
L 136.812839 -73.380868 
L 136.823542 -72.938618 
L 136.864657 -72.496369 
L 136.921485 -72.05412 
L 136.97779 -71.61187 
L 137.017111 -71.169621 
L 137.024181 -70.727371 
L 136.986263 -70.285122 
L 136.894275 -69.842872 
L 136.743541 -69.400623 
L 136.534106 -68.958374 
L 136.270563 -68.516124 
L 135.961443 -68.073875 
L 135.618245 -67.631625 
L 135.254242 -67.189376 
L 134.88322 -66.747126 
L 134.518291 -66.304877 
L 134.170914 -65.862628 
L 133.850198 -65.420378 
L 133.562541 -64.978129 
L 133.311575 -64.535879 
L 133.098381 -64.09363 
L 132.921898 -63.65138 
L 132.779444 -63.209131 
L 132.667264 -62.766882 
z
" style="stroke: #4c4c4c; stroke-width: 1.5"/>
    </defs>
    <g clip-path="url(#p04e4b3661a)">
     <use xlink:href="#m20291cdcd8" x="0" y="274.242437" style="fill: #cc8963; stroke: #4c4c4c; stroke-width: 1.5"/>
    </g>
   </g>
   <g id="PolyCollection_3">
    <defs>
     <path id="m4d14f0656e" d="M 188.220181 -66.756751 
L 188.110819 -66.756751 
L 188.087526 -67.551859 
L 188.056309 -68.346968 
L 188.015289 -69.142076 
L 187.962443 -69.937185 
L 187.895701 -70.732293 
L 187.813092 -71.527402 
L 187.712926 -72.32251 
L 187.594021 -73.117619 
L 187.455943 -73.912727 
L 187.299248 -74.707836 
L 187.125684 -75.502944 
L 186.938319 -76.298052 
L 186.741548 -77.093161 
L 186.540953 -77.888269 
L 186.342995 -78.683378 
L 186.154529 -79.478486 
L 185.982204 -80.273595 
L 185.83177 -81.068703 
L 185.707401 -81.863812 
L 185.611103 -82.65892 
L 185.542304 -83.454029 
L 185.497692 -84.249137 
L 185.471338 -85.044246 
L 185.455099 -85.839354 
L 185.439275 -86.634462 
L 185.413441 -87.429571 
L 185.367351 -88.224679 
L 185.291829 -89.019788 
L 185.179531 -89.814896 
L 185.025496 -90.610005 
L 184.827437 -91.405113 
L 184.585751 -92.200222 
L 184.303252 -92.99533 
L 183.984688 -93.790439 
L 183.636107 -94.585547 
L 183.264165 -95.380655 
L 182.875472 -96.175764 
L 182.476054 -96.970872 
L 182.070995 -97.765981 
L 181.664306 -98.561089 
L 181.258997 -99.356198 
L 180.857349 -100.151306 
L 180.461294 -100.946415 
L 180.072845 -101.741523 
L 179.694491 -102.536632 
L 179.329475 -103.33174 
L 178.981904 -104.126849 
L 178.656687 -104.921957 
L 178.359292 -105.717065 
L 178.095383 -106.512174 
L 177.870388 -107.307282 
L 177.689088 -108.102391 
L 177.555271 -108.897499 
L 177.471512 -109.692608 
L 177.4391 -110.487716 
L 177.458098 -111.282825 
L 177.527527 -112.077933 
L 177.645604 -112.873042 
L 177.810016 -113.66815 
L 178.018156 -114.463259 
L 178.267313 -115.258367 
L 178.554762 -116.053475 
L 178.877782 -116.848584 
L 179.233579 -117.643692 
L 179.619151 -118.438801 
L 180.031123 -119.233909 
L 180.46558 -120.029018 
L 180.917946 -120.824126 
L 181.382922 -121.619235 
L 181.854537 -122.414343 
L 182.326286 -123.209452 
L 182.791387 -124.00456 
L 183.243114 -124.799669 
L 183.675181 -125.594777 
L 184.082144 -126.389885 
L 184.459758 -127.184994 
L 184.805261 -127.980102 
L 185.117543 -128.775211 
L 185.39716 -129.570319 
L 185.646214 -130.365428 
L 185.868073 -131.160536 
L 186.066987 -131.955645 
L 186.247619 -132.750753 
L 186.414566 -133.545862 
L 186.571903 -134.34097 
L 186.722833 -135.136079 
L 186.869455 -135.931187 
L 187.012695 -136.726295 
L 187.152383 -137.521404 
L 187.287467 -138.316512 
L 187.416306 -139.111621 
L 187.537013 -139.906729 
L 187.647776 -140.701838 
L 187.747123 -141.496946 
L 187.834106 -142.292055 
L 187.908384 -143.087163 
L 187.970211 -143.882272 
L 188.020361 -144.67738 
L 188.059993 -145.472488 
L 188.271007 -145.472488 
L 188.271007 -145.472488 
L 188.310639 -144.67738 
L 188.360789 -143.882272 
L 188.422616 -143.087163 
L 188.496894 -142.292055 
L 188.583877 -141.496946 
L 188.683224 -140.701838 
L 188.793987 -139.906729 
L 188.914694 -139.111621 
L 189.043533 -138.316512 
L 189.178617 -137.521404 
L 189.318305 -136.726295 
L 189.461545 -135.931187 
L 189.608167 -135.136079 
L 189.759097 -134.34097 
L 189.916434 -133.545862 
L 190.083381 -132.750753 
L 190.264013 -131.955645 
L 190.462927 -131.160536 
L 190.684786 -130.365428 
L 190.93384 -129.570319 
L 191.213457 -128.775211 
L 191.525739 -127.980102 
L 191.871242 -127.184994 
L 192.248856 -126.389885 
L 192.655819 -125.594777 
L 193.087886 -124.799669 
L 193.539613 -124.00456 
L 194.004714 -123.209452 
L 194.476463 -122.414343 
L 194.948078 -121.619235 
L 195.413054 -120.824126 
L 195.86542 -120.029018 
L 196.299877 -119.233909 
L 196.711849 -118.438801 
L 197.097421 -117.643692 
L 197.453218 -116.848584 
L 197.776238 -116.053475 
L 198.063687 -115.258367 
L 198.312844 -114.463259 
L 198.520984 -113.66815 
L 198.685396 -112.873042 
L 198.803473 -112.077933 
L 198.872902 -111.282825 
L 198.8919 -110.487716 
L 198.859488 -109.692608 
L 198.775729 -108.897499 
L 198.641912 -108.102391 
L 198.460612 -107.307282 
L 198.235617 -106.512174 
L 197.971708 -105.717065 
L 197.674313 -104.921957 
L 197.349096 -104.126849 
L 197.001525 -103.33174 
L 196.636509 -102.536632 
L 196.258155 -101.741523 
L 195.869706 -100.946415 
L 195.473651 -100.151306 
L 195.072003 -99.356198 
L 194.666694 -98.561089 
L 194.260005 -97.765981 
L 193.854946 -96.970872 
L 193.455528 -96.175764 
L 193.066835 -95.380655 
L 192.694893 -94.585547 
L 192.346312 -93.790439 
L 192.027748 -92.99533 
L 191.745249 -92.200222 
L 191.503563 -91.405113 
L 191.305504 -90.610005 
L 191.151469 -89.814896 
L 191.039171 -89.019788 
L 190.963649 -88.224679 
L 190.917559 -87.429571 
L 190.891725 -86.634462 
L 190.875901 -85.839354 
L 190.859662 -85.044246 
L 190.833308 -84.249137 
L 190.788696 -83.454029 
L 190.719897 -82.65892 
L 190.623599 -81.863812 
L 190.49923 -81.068703 
L 190.348796 -80.273595 
L 190.176471 -79.478486 
L 189.988005 -78.683378 
L 189.790047 -77.888269 
L 189.589452 -77.093161 
L 189.392681 -76.298052 
L 189.205316 -75.502944 
L 189.031752 -74.707836 
L 188.875057 -73.912727 
L 188.736979 -73.117619 
L 188.618074 -72.32251 
L 188.517908 -71.527402 
L 188.435299 -70.732293 
L 188.368557 -69.937185 
L 188.315711 -69.142076 
L 188.274691 -68.346968 
L 188.243474 -67.551859 
L 188.220181 -66.756751 
z
" style="stroke: #4c4c4c; stroke-width: 1.5"/>
    </defs>
    <g clip-path="url(#p04e4b3661a)">
     <use xlink:href="#m4d14f0656e" x="0" y="274.242437" style="fill: #5f9e6e; stroke: #4c4c4c; stroke-width: 1.5"/>
    </g>
   </g>
   <g id="PolyCollection_4">
    <defs>
     <path id="m96f7bac937" d="M 243.991665 -65.050216 
L 243.939335 -65.050216 
L 243.928412 -66.405743 
L 243.913998 -67.76127 
L 243.895365 -69.116797 
L 243.871735 -70.472324 
L 243.842301 -71.827851 
L 243.806246 -73.183378 
L 243.762775 -74.538905 
L 243.711163 -75.894432 
L 243.650822 -77.249959 
L 243.581384 -78.605486 
L 243.502804 -79.961014 
L 243.415448 -81.316541 
L 243.320167 -82.672068 
L 243.218295 -84.027595 
L 243.111577 -85.383122 
L 243.001984 -86.738649 
L 242.891448 -88.094176 
L 242.781541 -89.449703 
L 242.673153 -90.80523 
L 242.566259 -92.160757 
L 242.459822 -93.516284 
L 242.35188 -94.871811 
L 242.239832 -96.227338 
L 242.12085 -97.582866 
L 241.99237 -98.938393 
L 241.852531 -100.29392 
L 241.700483 -101.649447 
L 241.536491 -103.004974 
L 241.361828 -104.360501 
L 241.178479 -105.716028 
L 240.988753 -107.071555 
L 240.794879 -108.427082 
L 240.598695 -109.782609 
L 240.401478 -111.138136 
L 240.203929 -112.493663 
L 240.006304 -113.84919 
L 239.808602 -115.204717 
L 239.610784 -116.560245 
L 239.412942 -117.915772 
L 239.215407 -119.271299 
L 239.018802 -120.626826 
L 238.824072 -121.982353 
L 238.632512 -123.33788 
L 238.445837 -124.693407 
L 238.266269 -126.048934 
L 238.096619 -127.404461 
L 237.940331 -128.759988 
L 237.801407 -130.115515 
L 237.684217 -131.471042 
L 237.593188 -132.826569 
L 237.532403 -134.182096 
L 237.505208 -135.537624 
L 237.513886 -136.893151 
L 237.559479 -138.248678 
L 237.641777 -139.604205 
L 237.759468 -140.959732 
L 237.910403 -142.315259 
L 238.091881 -143.670786 
L 238.300893 -145.026313 
L 238.534269 -146.38184 
L 238.788693 -147.737367 
L 239.060638 -149.092894 
L 239.346234 -150.448421 
L 239.641181 -151.803948 
L 239.940724 -153.159476 
L 240.239762 -154.515003 
L 240.533076 -155.87053 
L 240.815657 -157.226057 
L 241.083076 -158.581584 
L 241.331824 -159.937111 
L 241.559578 -161.292638 
L 241.765324 -162.648165 
L 241.949338 -164.003692 
L 242.11302 -165.359219 
L 242.258629 -166.714746 
L 242.388946 -168.070273 
L 242.506938 -169.4258 
L 242.615461 -170.781327 
L 242.71703 -172.136855 
L 242.813674 -173.492382 
L 242.906882 -174.847909 
L 242.997607 -176.203436 
L 243.086322 -177.558963 
L 243.173103 -178.91449 
L 243.257711 -180.270017 
L 243.339678 -181.625544 
L 243.418382 -182.981071 
L 243.49312 -184.336598 
L 243.563169 -185.692125 
L 243.627854 -187.047652 
L 243.686604 -188.403179 
L 243.739005 -189.758707 
L 243.784838 -191.114234 
L 243.8241 -192.469761 
L 243.857002 -193.825288 
L 243.883949 -195.180815 
L 243.9055 -196.536342 
L 243.922318 -197.891869 
L 243.935118 -199.247396 
L 243.995882 -199.247396 
L 243.995882 -199.247396 
L 244.008682 -197.891869 
L 244.0255 -196.536342 
L 244.047051 -195.180815 
L 244.073998 -193.825288 
L 244.1069 -192.469761 
L 244.146162 -191.114234 
L 244.191995 -189.758707 
L 244.244396 -188.403179 
L 244.303146 -187.047652 
L 244.367831 -185.692125 
L 244.43788 -184.336598 
L 244.512618 -182.981071 
L 244.591322 -181.625544 
L 244.673289 -180.270017 
L 244.757897 -178.91449 
L 244.844678 -177.558963 
L 244.933393 -176.203436 
L 245.024118 -174.847909 
L 245.117326 -173.492382 
L 245.21397 -172.136855 
L 245.315539 -170.781327 
L 245.424062 -169.4258 
L 245.542054 -168.070273 
L 245.672371 -166.714746 
L 245.81798 -165.359219 
L 245.981662 -164.003692 
L 246.165676 -162.648165 
L 246.371422 -161.292638 
L 246.599176 -159.937111 
L 246.847924 -158.581584 
L 247.115343 -157.226057 
L 247.397924 -155.87053 
L 247.691238 -154.515003 
L 247.990276 -153.159476 
L 248.289819 -151.803948 
L 248.584766 -150.448421 
L 248.870362 -149.092894 
L 249.142307 -147.737367 
L 249.396731 -146.38184 
L 249.630107 -145.026313 
L 249.839119 -143.670786 
L 250.020597 -142.315259 
L 250.171532 -140.959732 
L 250.289223 -139.604205 
L 250.371521 -138.248678 
L 250.417114 -136.893151 
L 250.425792 -135.537624 
L 250.398597 -134.182096 
L 250.337812 -132.826569 
L 250.246783 -131.471042 
L 250.129593 -130.115515 
L 249.990669 -128.759988 
L 249.834381 -127.404461 
L 249.664731 -126.048934 
L 249.485163 -124.693407 
L 249.298488 -123.33788 
L 249.106928 -121.982353 
L 248.912198 -120.626826 
L 248.715593 -119.271299 
L 248.518058 -117.915772 
L 248.320216 -116.560245 
L 248.122398 -115.204717 
L 247.924696 -113.84919 
L 247.727071 -112.493663 
L 247.529522 -111.138136 
L 247.332305 -109.782609 
L 247.136121 -108.427082 
L 246.942247 -107.071555 
L 246.752521 -105.716028 
L 246.569172 -104.360501 
L 246.394509 -103.004974 
L 246.230517 -101.649447 
L 246.078469 -100.29392 
L 245.93863 -98.938393 
L 245.81015 -97.582866 
L 245.691168 -96.227338 
L 245.57912 -94.871811 
L 245.471178 -93.516284 
L 245.364741 -92.160757 
L 245.257847 -90.80523 
L 245.149459 -89.449703 
L 245.039552 -88.094176 
L 244.929016 -86.738649 
L 244.819423 -85.383122 
L 244.712705 -84.027595 
L 244.610833 -82.672068 
L 244.515552 -81.316541 
L 244.428196 -79.961014 
L 244.349616 -78.605486 
L 244.280178 -77.249959 
L 244.219837 -75.894432 
L 244.168225 -74.538905 
L 244.124754 -73.183378 
L 244.088699 -71.827851 
L 244.059265 -70.472324 
L 244.035635 -69.116797 
L 244.017002 -67.76127 
L 244.002588 -66.405743 
L 243.991665 -65.050216 
z
" style="stroke: #4c4c4c; stroke-width: 1.5"/>
    </defs>
    <g clip-path="url(#p04e4b3661a)">
     <use xlink:href="#m96f7bac937" x="0" y="274.242437" style="fill: #b55d60; stroke: #4c4c4c; stroke-width: 1.5"/>
    </g>
   </g>
   <g id="PolyCollection_5">
    <defs>
     <path id="m4afbd3cf31" d="M 299.78294 -55.362437 
L 299.74806 -55.362437 
L 299.740817 -57.398801 
L 299.731262 -59.435165 
L 299.718903 -61.471528 
L 299.703212 -63.507892 
L 299.683628 -65.544256 
L 299.659566 -67.580619 
L 299.630432 -69.616983 
L 299.595639 -71.653347 
L 299.554635 -73.68971 
L 299.506939 -75.726074 
L 299.452193 -77.762437 
L 299.390203 -79.798801 
L 299.320983 -81.835165 
L 299.244773 -83.871528 
L 299.162027 -85.907892 
L 299.073365 -87.944256 
L 298.979487 -89.980619 
L 298.881077 -92.016983 
L 298.778707 -94.053347 
L 298.672774 -96.08971 
L 298.563496 -98.126074 
L 298.450963 -100.162437 
L 298.335242 -102.198801 
L 298.216507 -104.235165 
L 298.095151 -106.271528 
L 297.971846 -108.307892 
L 297.847515 -110.344256 
L 297.723217 -112.380619 
L 297.599964 -114.416983 
L 297.478505 -116.453347 
L 297.359144 -118.48971 
L 297.241635 -120.526074 
L 297.125196 -122.562437 
L 297.008655 -124.598801 
L 296.890707 -126.635165 
L 296.770232 -128.671528 
L 296.646622 -130.707892 
L 296.520044 -132.744256 
L 296.391585 -134.780619 
L 296.263261 -136.816983 
L 296.137854 -138.853347 
L 296.018639 -140.88971 
L 295.90902 -142.926074 
L 295.812161 -144.962437 
L 295.730668 -146.998801 
L 295.666385 -149.035165 
L 295.62035 -151.071528 
L 295.592896 -153.107892 
L 295.583884 -155.144256 
L 295.592997 -157.180619 
L 295.620021 -159.216983 
L 295.665037 -161.253347 
L 295.72846 -163.28971 
L 295.810909 -165.326074 
L 295.912925 -167.362437 
L 296.034604 -169.398801 
L 296.175226 -171.435165 
L 296.332981 -173.471528 
L 296.50487 -175.507892 
L 296.686826 -177.544256 
L 296.874041 -179.580619 
L 297.061459 -181.616983 
L 297.244345 -183.653347 
L 297.418813 -185.68971 
L 297.582232 -187.726074 
L 297.733424 -189.762437 
L 297.87262 -191.798801 
L 298.001199 -193.835165 
L 298.121256 -195.871528 
L 298.235097 -197.907892 
L 298.344743 -199.944256 
L 298.451552 -201.980619 
L 298.556001 -204.016983 
L 298.657676 -206.053347 
L 298.755434 -208.08971 
L 298.847715 -210.126074 
L 298.932905 -212.162437 
L 299.009698 -214.198801 
L 299.077378 -216.235165 
L 299.135972 -218.271528 
L 299.186262 -220.307892 
L 299.22966 -222.344256 
L 299.267981 -224.380619 
L 299.303165 -226.416983 
L 299.336999 -228.453347 
L 299.370886 -230.48971 
L 299.405702 -232.526074 
L 299.441739 -234.562437 
L 299.478751 -236.598801 
L 299.516075 -238.635165 
L 299.552789 -240.671528 
L 299.587889 -242.707892 
L 299.620443 -244.744256 
L 299.649714 -246.780619 
L 299.675225 -248.816983 
L 299.696781 -250.853347 
L 299.714445 -252.88971 
L 299.728489 -254.926074 
L 299.739326 -256.962437 
L 299.791674 -256.962437 
L 299.791674 -256.962437 
L 299.802511 -254.926074 
L 299.816555 -252.88971 
L 299.834219 -250.853347 
L 299.855775 -248.816983 
L 299.881286 -246.780619 
L 299.910557 -244.744256 
L 299.943111 -242.707892 
L 299.978211 -240.671528 
L 300.014925 -238.635165 
L 300.052249 -236.598801 
L 300.089261 -234.562437 
L 300.125298 -232.526074 
L 300.160114 -230.48971 
L 300.194001 -228.453347 
L 300.227835 -226.416983 
L 300.263019 -224.380619 
L 300.30134 -222.344256 
L 300.344738 -220.307892 
L 300.395028 -218.271528 
L 300.453622 -216.235165 
L 300.521302 -214.198801 
L 300.598095 -212.162437 
L 300.683285 -210.126074 
L 300.775566 -208.08971 
L 300.873324 -206.053347 
L 300.974999 -204.016983 
L 301.079448 -201.980619 
L 301.186257 -199.944256 
L 301.295903 -197.907892 
L 301.409744 -195.871528 
L 301.529801 -193.835165 
L 301.65838 -191.798801 
L 301.797576 -189.762437 
L 301.948768 -187.726074 
L 302.112187 -185.68971 
L 302.286655 -183.653347 
L 302.469541 -181.616983 
L 302.656959 -179.580619 
L 302.844174 -177.544256 
L 303.02613 -175.507892 
L 303.198019 -173.471528 
L 303.355774 -171.435165 
L 303.496396 -169.398801 
L 303.618075 -167.362437 
L 303.720091 -165.326074 
L 303.80254 -163.28971 
L 303.865963 -161.253347 
L 303.910979 -159.216983 
L 303.938003 -157.180619 
L 303.947116 -155.144256 
L 303.938104 -153.107892 
L 303.91065 -151.071528 
L 303.864615 -149.035165 
L 303.800332 -146.998801 
L 303.718839 -144.962437 
L 303.62198 -142.926074 
L 303.512361 -140.88971 
L 303.393146 -138.853347 
L 303.267739 -136.816983 
L 303.139415 -134.780619 
L 303.010956 -132.744256 
L 302.884378 -130.707892 
L 302.760768 -128.671528 
L 302.640293 -126.635165 
L 302.522345 -124.598801 
L 302.405804 -122.562437 
L 302.289365 -120.526074 
L 302.171856 -118.48971 
L 302.052495 -116.453347 
L 301.931036 -114.416983 
L 301.807783 -112.380619 
L 301.683485 -110.344256 
L 301.559154 -108.307892 
L 301.435849 -106.271528 
L 301.314493 -104.235165 
L 301.195758 -102.198801 
L 301.080037 -100.162437 
L 300.967504 -98.126074 
L 300.858226 -96.08971 
L 300.752293 -94.053347 
L 300.649923 -92.016983 
L 300.551513 -89.980619 
L 300.457635 -87.944256 
L 300.368973 -85.907892 
L 300.286227 -83.871528 
L 300.210017 -81.835165 
L 300.140797 -79.798801 
L 300.078807 -77.762437 
L 300.024061 -75.726074 
L 299.976365 -73.68971 
L 299.935361 -71.653347 
L 299.900568 -69.616983 
L 299.871434 -67.580619 
L 299.847372 -65.544256 
L 299.827788 -63.507892 
L 299.812097 -61.471528 
L 299.799738 -59.435165 
L 299.790183 -57.398801 
L 299.78294 -55.362437 
z
" style="stroke: #4c4c4c; stroke-width: 1.5"/>
    </defs>
    <g clip-path="url(#p04e4b3661a)">
     <use xlink:href="#m4afbd3cf31" x="0" y="274.242437" style="fill: #857aab; stroke: #4c4c4c; stroke-width: 1.5"/>
    </g>
   </g>
   <g id="line2d_6">
    <path d="M 76.5655 205.782882 
L 76.5655 179.843714 
" clip-path="url(#p04e4b3661a)" style="fill: none; stroke: #4c4c4c; stroke-width: 1.5; stroke-linecap: round"/>
   </g>
   <g id="line2d_7">
    <path d="M 76.5655 195.517659 
L 76.5655 188.432168 
" clip-path="url(#p04e4b3661a)" style="fill: none; stroke: #4c4c4c; stroke-width: 4.5; stroke-linecap: round"/>
   </g>
   <g id="line2d_8">
    <path d="M 132.3655 204.964897 
L 132.3655 173.700802 
" clip-path="url(#p04e4b3661a)" style="fill: none; stroke: #4c4c4c; stroke-width: 1.5; stroke-linecap: round"/>
   </g>
   <g id="line2d_9">
    <path d="M 132.3655 192.086403 
L 132.3655 183.481216 
" clip-path="url(#p04e4b3661a)" style="fill: none; stroke: #4c4c4c; stroke-width: 4.5; stroke-linecap: round"/>
   </g>
   <g id="line2d_10">
    <path d="M 188.1655 197.268899 
L 188.1655 138.986736 
" clip-path="url(#p04e4b3661a)" style="fill: none; stroke: #4c4c4c; stroke-width: 1.5; stroke-linecap: round"/>
   </g>
   <g id="line2d_11">
    <path d="M 188.1655 173.659876 
L 188.1655 157.551688 
" clip-path="url(#p04e4b3661a)" style="fill: none; stroke: #4c4c4c; stroke-width: 4.5; stroke-linecap: round"/>
   </g>
   <g id="line2d_12">
    <path d="M 243.9655 192.736343 
L 243.9655 91.450921 
" clip-path="url(#p04e4b3661a)" style="fill: none; stroke: #4c4c4c; stroke-width: 1.5; stroke-linecap: round"/>
   </g>
   <g id="line2d_13">
    <path d="M 243.9655 154.137007 
L 243.9655 127.982075 
" clip-path="url(#p04e4b3661a)" style="fill: none; stroke: #4c4c4c; stroke-width: 4.5; stroke-linecap: round"/>
   </g>
   <g id="line2d_14">
    <path d="M 299.7655 193.953935 
L 299.7655 46.780271 
" clip-path="url(#p04e4b3661a)" style="fill: none; stroke: #4c4c4c; stroke-width: 1.5; stroke-linecap: round"/>
   </g>
   <g id="line2d_15">
    <path d="M 299.7655 141.627614 
L 299.7655 102.88464 
" clip-path="url(#p04e4b3661a)" style="fill: none; stroke: #4c4c4c; stroke-width: 4.5; stroke-linecap: round"/>
   </g>
   <g id="patch_3">
    <path d="M 48.6655 228.96 
L 48.6655 7.2 
" style="fill: none; stroke: #cccccc; stroke-width: 1.25; stroke-linejoin: miter; stroke-linecap: square"/>
   </g>
   <g id="patch_4">
    <path d="M 327.6655 228.96 
L 327.6655 7.2 
" style="fill: none; stroke: #cccccc; stroke-width: 1.25; stroke-linejoin: miter; stroke-linecap: square"/>
   </g>
   <g id="patch_5">
    <path d="M 48.6655 228.96 
L 327.6655 228.96 
" style="fill: none; stroke: #cccccc; stroke-width: 1.25; stroke-linejoin: miter; stroke-linecap: square"/>
   </g>
   <g id="patch_6">
    <path d="M 48.6655 7.2 
L 327.6655 7.2 
" style="fill: none; stroke: #cccccc; stroke-width: 1.25; stroke-linejoin: miter; stroke-linecap: square"/>
   </g>
   <g id="PathCollection_1">
    <defs>
     <path id="m7cc8ab537e" d="M 0 1.5 
C 0.397805 1.5 0.77937 1.341951 1.06066 1.06066 
C 1.341951 0.77937 1.5 0.397805 1.5 0 
C 1.5 -0.397805 1.341951 -0.77937 1.06066 -1.06066 
C 0.77937 -1.341951 0.397805 -1.5 0 -1.5 
C -0.397805 -1.5 -0.77937 -1.341951 -1.06066 -1.06066 
C -1.341951 -0.77937 -1.5 -0.397805 -1.5 0 
C -1.5 0.397805 -1.341951 0.77937 -1.06066 1.06066 
C -0.77937 1.341951 -0.397805 1.5 0 1.5 
z
" style="stroke: #4c4c4c"/>
    </defs>
    <g clip-path="url(#p04e4b3661a)">
     <use xlink:href="#m7cc8ab537e" x="76.5655" y="191.670208" style="fill: #ffffff; stroke: #4c4c4c"/>
    </g>
   </g>
   <g id="PathCollection_2">
    <g clip-path="url(#p04e4b3661a)">
     <use xlink:href="#m7cc8ab537e" x="132.3655" y="187.915701" style="fill: #ffffff; stroke: #4c4c4c"/>
    </g>
   </g>
   <g id="PathCollection_3">
    <g clip-path="url(#p04e4b3661a)">
     <use xlink:href="#m7cc8ab537e" x="188.1655" y="165.645068" style="fill: #ffffff; stroke: #4c4c4c"/>
    </g>
   </g>
   <g id="PathCollection_4">
    <g clip-path="url(#p04e4b3661a)">
     <use xlink:href="#m7cc8ab537e" x="243.9655" y="139.625082" style="fill: #ffffff; stroke: #4c4c4c"/>
    </g>
   </g>
   <g id="PathCollection_5">
    <g clip-path="url(#p04e4b3661a)">
     <use xlink:href="#m7cc8ab537e" x="299.7655" y="122.588089" style="fill: #ffffff; stroke: #4c4c4c"/>
    </g>
   </g>
  </g>
 </g>
 <defs>
  <clipPath id="p04e4b3661a">
   <rect x="48.6655" y="7.2" width="279" height="221.76"/>
  </clipPath>
 </defs>
</svg>
