<?xml version="1.0" encoding="UTF-8" standalone="no"?>
<svg
   width="24"
   height="24"
   viewBox="0 0 24 24"
   fill="none"
   stroke="currentColor"
   stroke-width="2"
   stroke-linecap="round"
   stroke-linejoin="round"
   class="icon icon-tabler icons-tabler-outline icon-tabler-plug"
   version="1.1"
   id="svg5609"
   xmlns="http://www.w3.org/2000/svg"
   xmlns:svg="http://www.w3.org/2000/svg">
  <defs
     id="defs5613" />
  <path
     stroke="none"
     d="M 0,0 H 24 V 24 H 0 Z"
     fill="none"
     id="path5599" />
  <path
     d="M 9.785,6 18,14.215 15.946,16.269 A 5.81,5.81 0 1 1 7.731,8.054 Z"
     id="path5601" />
  <path
     d="M 4,20 7.5,16.5"
     id="path5603" />
  <path
     d="M 15,4 11.5,7.5"
     id="path5605" />
  <path
     d="m 20,9 -3.5,3.5"
     id="path5607" />
  <path
     style="fill:#999999;fill-opacity:1;stroke-width:0.0467381"
     d="m 3.7681618,20.960023 c -0.2542026,-0.05991 -0.5354291,-0.286732 -0.6473061,-0.52208 -0.1412274,-0.29709 -0.140694,-0.58397 0.00163,-0.877982 0.066628,-0.137638 0.220012,-0.298764 1.6256829,-1.707746 L 6.3002846,16.296446 6.1504643,16.076169 C 5.4914192,15.107188 5.0975452,14.012113 4.9876445,12.843216 4.9532445,12.477339 4.9716852,11.655713 5.0218125,11.320863 5.20915,10.069451 5.6684368,8.9998476 6.4461165,8.0038948 6.6279877,7.7709773 9.0791406,5.2946652 9.2363549,5.1850169 9.5217665,4.9859577 9.8936969,4.9624832 10.223953,5.1226844 c 0.127195,0.0617 0.23469,0.1554629 0.660963,0.5765295 l 0.509064,0.502846 1.488989,-1.485902 c 0.818943,-0.817246 1.532854,-1.5130005 1.586467,-1.546121 0.394418,-0.2436572 0.872432,-0.1933163 1.211769,0.1276143 0.152979,0.144681 0.25571,0.3415665 0.292561,0.5606988 0.03282,0.1951456 0.003,0.3730685 -0.09762,0.5817668 -0.06635,0.1376642 -0.214142,0.2931796 -1.577144,1.6595192 l -1.503937,1.5076206 1.798973,1.7988599 1.798974,1.7988595 1.501642,-1.4982732 C 18.810689,8.7927265 19.43731,8.1852126 19.501461,8.1488964 19.8904,7.928712 20.35309,7.9873865 20.682179,8.2986249 c 0.312779,0.2958134 0.389094,0.7421658 0.19532,1.1423878 -0.06654,0.1374401 -0.217348,0.2961498 -1.576634,1.6592793 l -1.503052,1.507303 0.507394,0.514119 c 0.52783,0.534826 0.600381,0.63184 0.657366,0.879018 0.05368,0.232862 0.0073,0.507573 -0.122684,0.726766 -0.07643,0.128878 -2.558238,2.600449 -2.820415,2.808784 -1.611234,1.280341 -3.676272,1.774489 -5.662784,1.355061 -0.8740271,-0.184539 -1.8497748,-0.610006 -2.5195094,-1.09861 -0.05956,-0.04345 -0.1171438,-0.079 -0.1279635,-0.079 -0.010819,0 -0.7139869,0.692344 -1.5625944,1.538542 -0.9376949,0.935033 -1.584173,1.561955 -1.6480833,1.598229 -0.215418,0.122267 -0.4970917,0.164505 -0.7303776,0.109523 z m 8.5073452,-3.925346 c 0.681325,-0.07421 1.390065,-0.311 1.958378,-0.654277 0.438663,-0.264965 0.654505,-0.451514 1.523116,-1.31641 L 16.604558,14.220058 13.192302,10.808262 9.7800465,7.3964647 9.0186429,8.1558761 c -1.057096,1.05433 -1.2529949,1.2962816 -1.5758849,1.9463499 -0.6685264,1.345933 -0.6732839,2.905773 -0.012986,4.258047 0.6596214,1.35089 1.8948708,2.306817 3.366723,2.60542 0.128529,0.02607 0.312561,0.05646 0.408958,0.06752 0.254919,0.02926 0.807946,0.03001 1.070054,0.0015 z"
     id="path6412" />
</svg>
